<svg xmlns="http://www.w3.org/2000/svg" xmlns:xlink="http://www.w3.org/1999/xlink" width="140" zoomAndPan="magnify" viewBox="0 0 104.88 30.000001" height="40" preserveAspectRatio="xMidYMid meet" version="1.0"><defs><g/><clipPath id="5c5ab5e584"><path d="M 1.632812 0 L 103.128906 0 L 103.128906 29.03125 L 1.632812 29.03125 Z M 1.632812 0 " clip-rule="nonzero"/></clipPath><clipPath id="fb9921eb73"><path d="M 4.535156 2.902344 L 32.84375 2.902344 L 32.84375 26.855469 L 4.535156 26.855469 Z M 4.535156 2.902344 " clip-rule="nonzero"/></clipPath><clipPath id="ac39fa74e3"><path d="M 4.535156 2.902344 L 32.84375 2.902344 L 32.84375 26.855469 L 4.535156 26.855469 Z M 4.535156 2.902344 " clip-rule="nonzero"/></clipPath></defs><g clip-path="url(#5c5ab5e584)"><path fill="#ffffff" d="M 1.632812 0 L 103.246094 0 L 103.246094 29.03125 L 1.632812 29.03125 Z M 1.632812 0 " fill-opacity="1" fill-rule="nonzero"/><path fill="#ffffff" d="M 1.632812 0 L 103.246094 0 L 103.246094 29.03125 L 1.632812 29.03125 Z M 1.632812 0 " fill-opacity="1" fill-rule="nonzero"/></g><g clip-path="url(#fb9921eb73)"><path fill="#ffde59" d="M 32.863281 22.996094 L 32.863281 25.734375 L 19.164062 25.734375 L 19.164062 26.648438 L 13.683594 26.648438 L 13.683594 25.734375 L 4.550781 25.734375 L 4.550781 22.082031 L 5.464844 22.082031 L 5.464844 21.167969 L 6.378906 21.167969 L 6.378906 20.253906 L 7.292969 20.253906 L 7.292969 13.863281 L 8.203125 13.863281 L 8.203125 11.121094 L 7.292969 11.121094 L 7.292969 4.730469 L 8.203125 4.730469 L 8.203125 3.816406 L 21.90625 3.816406 L 21.90625 2.902344 L 24.644531 2.902344 L 24.644531 3.816406 L 29.210938 3.816406 L 29.210938 5.644531 L 30.125 5.644531 L 30.125 9.296875 L 29.210938 9.296875 L 29.210938 19.34375 L 30.125 19.34375 L 30.125 20.253906 L 31.039062 20.253906 L 31.039062 21.167969 L 31.949219 21.167969 L 31.949219 22.996094 Z M 32.863281 22.996094 " fill-opacity="1" fill-rule="nonzero"/></g><path fill="#ffde59" d="M 19.164062 24.820312 L 19.164062 25.734375 L 13.683594 25.734375 L 13.683594 23.910156 L 14.597656 23.910156 L 14.597656 22.996094 L 23.730469 22.996094 L 23.730469 24.820312 Z M 8.203125 14.777344 L 8.203125 13.863281 L 9.117188 13.863281 L 9.117188 11.121094 L 8.203125 11.121094 L 8.203125 4.730469 L 21.90625 4.730469 L 21.90625 3.816406 L 24.644531 3.816406 L 24.644531 4.730469 L 28.296875 4.730469 L 28.296875 5.644531 L 29.210938 5.644531 L 29.210938 9.296875 L 28.296875 9.296875 L 28.296875 17.515625 L 8.203125 17.515625 Z M 10.03125 13.863281 L 10.03125 15.691406 L 10.945312 15.691406 L 10.945312 16.601562 L 18.25 16.601562 L 18.25 15.691406 L 24.644531 15.691406 L 24.644531 16.601562 L 26.472656 16.601562 L 26.472656 15.691406 L 27.382812 15.691406 L 27.382812 6.554688 L 26.472656 6.554688 L 26.472656 5.644531 L 11.859375 5.644531 L 11.859375 6.554688 L 9.117188 6.554688 L 9.117188 10.210938 L 10.03125 10.210938 Z M 7.292969 21.167969 L 7.292969 20.253906 L 8.203125 20.253906 L 8.203125 19.34375 L 9.117188 19.34375 L 9.117188 18.429688 L 15.511719 18.429688 L 15.511719 19.34375 L 20.992188 19.34375 L 20.992188 18.429688 L 28.296875 18.429688 L 28.296875 19.34375 L 29.210938 19.34375 L 29.210938 20.253906 L 30.125 20.253906 L 30.125 22.082031 L 31.039062 22.082031 L 31.039062 22.996094 L 31.949219 22.996094 L 31.949219 24.820312 L 25.558594 24.820312 L 25.558594 23.910156 L 24.644531 23.910156 L 24.644531 22.996094 L 23.730469 22.996094 L 23.730469 22.082031 L 13.683594 22.082031 L 13.683594 23.910156 L 11.859375 23.910156 L 11.859375 24.820312 L 5.464844 24.820312 L 5.464844 22.996094 L 6.378906 22.996094 L 6.378906 22.082031 L 7.292969 22.082031 Z M 11.859375 22.996094 L 11.859375 22.082031 L 8.203125 22.082031 L 8.203125 22.996094 Z M 25.558594 22.996094 L 27.382812 22.996094 L 27.382812 22.082031 L 25.558594 22.082031 Z M 29.210938 22.082031 L 28.296875 22.082031 L 28.296875 22.996094 L 29.210938 22.996094 Z M 20.992188 20.253906 L 20.992188 21.167969 L 26.472656 21.167969 L 26.472656 20.253906 Z M 15.511719 20.253906 L 10.945312 20.253906 L 10.945312 21.167969 L 19.164062 21.167969 L 19.164062 20.253906 Z M 15.511719 20.253906 " fill-opacity="1" fill-rule="nonzero"/><g clip-path="url(#ac39fa74e3)"><path fill="#0d2f5c" d="M 32.863281 22.996094 L 32.863281 25.734375 L 19.164062 25.734375 L 19.164062 24.820312 L 23.730469 24.820312 L 23.730469 22.996094 L 24.644531 22.996094 L 24.644531 23.910156 L 25.558594 23.910156 L 25.558594 24.820312 L 31.949219 24.820312 L 31.949219 22.996094 Z M 30.125 22.082031 L 31.039062 22.082031 L 31.039062 22.996094 L 31.949219 22.996094 L 31.949219 21.167969 L 31.039062 21.167969 L 31.039062 20.253906 L 30.125 20.253906 Z M 29.210938 7.46875 L 29.210938 9.296875 L 30.125 9.296875 L 30.125 5.644531 L 29.210938 5.644531 Z M 30.125 20.253906 L 30.125 19.34375 L 29.210938 19.34375 L 29.210938 20.253906 Z M 25.558594 4.730469 L 28.296875 4.730469 L 28.296875 5.644531 L 29.210938 5.644531 L 29.210938 3.816406 L 24.644531 3.816406 L 24.644531 4.730469 Z M 22.816406 22.082031 L 13.683594 22.082031 L 13.683594 23.910156 L 14.597656 23.910156 L 14.597656 22.996094 L 23.730469 22.996094 L 23.730469 22.082031 Z M 23.730469 3.816406 L 24.644531 3.816406 L 24.644531 2.902344 L 21.90625 2.902344 L 21.90625 3.816406 Z M 17.339844 25.734375 L 13.683594 25.734375 L 13.683594 26.648438 L 19.164062 26.648438 L 19.164062 25.734375 Z M 13.683594 23.910156 L 11.859375 23.910156 L 11.859375 24.820312 L 5.464844 24.820312 L 5.464844 22.996094 L 6.378906 22.996094 L 6.378906 22.082031 L 7.292969 22.082031 L 7.292969 20.253906 L 6.378906 20.253906 L 6.378906 21.167969 L 5.464844 21.167969 L 5.464844 22.082031 L 4.550781 22.082031 L 4.550781 25.734375 L 13.683594 25.734375 Z M 10.03125 15.691406 L 10.945312 15.691406 L 10.945312 16.601562 L 18.25 16.601562 L 18.25 15.691406 L 24.644531 15.691406 L 24.644531 16.601562 L 26.472656 16.601562 L 26.472656 15.691406 L 27.382812 15.691406 L 27.382812 6.554688 L 26.472656 6.554688 L 26.472656 5.644531 L 11.859375 5.644531 L 11.859375 6.554688 L 19.164062 6.554688 L 19.164062 7.46875 L 18.25 7.46875 L 18.25 8.382812 L 16.425781 8.382812 L 16.425781 9.296875 L 14.597656 9.296875 L 14.597656 10.210938 L 12.773438 10.210938 L 12.773438 11.121094 L 10.945312 11.121094 L 10.945312 10.210938 L 10.03125 10.210938 Z M 10.03125 8.382812 L 10.03125 7.46875 L 11.859375 7.46875 L 11.859375 6.554688 L 9.117188 6.554688 L 9.117188 10.210938 L 10.03125 10.210938 Z M 10.03125 4.730469 L 21.90625 4.730469 L 21.90625 3.816406 L 8.203125 3.816406 L 8.203125 4.730469 Z M 9.117188 12.949219 L 9.117188 11.121094 L 8.203125 11.121094 L 8.203125 13.863281 L 9.117188 13.863281 Z M 8.203125 19.34375 L 9.117188 19.34375 L 9.117188 18.429688 L 15.511719 18.429688 L 15.511719 19.34375 L 20.992188 19.34375 L 20.992188 18.429688 L 28.296875 18.429688 L 28.296875 19.34375 L 29.210938 19.34375 L 29.210938 9.296875 L 28.296875 9.296875 L 28.296875 17.515625 L 8.203125 17.515625 L 8.203125 13.863281 L 7.292969 13.863281 L 7.292969 20.253906 L 8.203125 20.253906 Z M 8.203125 9.296875 L 8.203125 4.730469 L 7.292969 4.730469 L 7.292969 11.121094 L 8.203125 11.121094 Z M 8.203125 9.296875 " fill-opacity="1" fill-rule="nonzero"/></g><path fill="#ffffff" d="M 28.296875 22.082031 L 29.210938 22.082031 L 29.210938 22.996094 L 28.296875 22.996094 Z M 27.382812 22.996094 L 27.382812 22.082031 L 25.558594 22.082031 L 25.558594 22.996094 Z M 21.90625 21.167969 L 26.472656 21.167969 L 26.472656 20.253906 L 20.992188 20.253906 L 20.992188 21.167969 Z M 13.683594 20.253906 L 10.945312 20.253906 L 10.945312 21.167969 L 19.164062 21.167969 L 19.164062 20.253906 Z M 10.945312 22.082031 L 8.203125 22.082031 L 8.203125 22.996094 L 11.859375 22.996094 L 11.859375 22.082031 Z M 10.945312 11.121094 L 12.773438 11.121094 L 12.773438 10.210938 L 14.597656 10.210938 L 14.597656 9.296875 L 16.425781 9.296875 L 16.425781 8.382812 L 18.25 8.382812 L 18.25 7.46875 L 19.164062 7.46875 L 19.164062 6.554688 L 11.859375 6.554688 L 11.859375 7.46875 L 10.03125 7.46875 L 10.03125 10.210938 L 10.945312 10.210938 Z M 10.945312 11.121094 " fill-opacity="1" fill-rule="nonzero"/><g fill="#000000" fill-opacity="1"><g transform="translate(32.241157, 20.852453)"><g><path d="M 6.4375 0.171875 C 4.707031 0.171875 3.320312 -0.21875 2.28125 -1 C 1.25 -1.78125 0.703125 -2.96875 0.640625 -4.5625 C 0.628906 -5.03125 0.625 -5.539062 0.625 -6.09375 C 0.625 -6.644531 0.628906 -7.164062 0.640625 -7.65625 C 0.679688 -8.675781 0.945312 -9.519531 1.4375 -10.1875 C 1.925781 -10.863281 2.597656 -11.367188 3.453125 -11.703125 C 4.316406 -12.046875 5.3125 -12.21875 6.4375 -12.21875 C 7.644531 -12.21875 8.6875 -12.039062 9.5625 -11.6875 C 10.445312 -11.34375 11.128906 -10.878906 11.609375 -10.296875 C 12.085938 -9.710938 12.335938 -9.070312 12.359375 -8.375 C 12.359375 -8.269531 12.316406 -8.179688 12.234375 -8.109375 C 12.160156 -8.035156 12.070312 -8 11.96875 -8 L 8.171875 -8 C 7.941406 -8 7.773438 -8.0625 7.671875 -8.1875 C 7.628906 -8.25 7.5625 -8.332031 7.46875 -8.4375 C 7.382812 -8.539062 7.257812 -8.632812 7.09375 -8.71875 C 6.9375 -8.8125 6.71875 -8.859375 6.4375 -8.859375 C 5.582031 -8.859375 5.140625 -8.425781 5.109375 -7.5625 C 5.078125 -6.613281 5.078125 -5.640625 5.109375 -4.640625 C 5.128906 -4.128906 5.257812 -3.757812 5.5 -3.53125 C 5.738281 -3.300781 6.070312 -3.1875 6.5 -3.1875 C 6.9375 -3.1875 7.289062 -3.28125 7.5625 -3.46875 C 7.832031 -3.65625 7.96875 -3.972656 7.96875 -4.421875 L 7.15625 -4.421875 C 7.03125 -4.421875 6.921875 -4.46875 6.828125 -4.5625 C 6.734375 -4.65625 6.6875 -4.765625 6.6875 -4.890625 L 6.6875 -6.796875 C 6.6875 -6.921875 6.734375 -7.03125 6.828125 -7.125 C 6.921875 -7.21875 7.03125 -7.265625 7.15625 -7.265625 L 11.890625 -7.265625 C 12.015625 -7.265625 12.125 -7.21875 12.21875 -7.125 C 12.3125 -7.03125 12.359375 -6.921875 12.359375 -6.796875 L 12.359375 -4.5625 C 12.359375 -3.53125 12.101562 -2.660156 11.59375 -1.953125 C 11.09375 -1.253906 10.394531 -0.722656 9.5 -0.359375 C 8.613281 -0.00390625 7.59375 0.171875 6.4375 0.171875 Z M 4.078125 -11.46875 C 4.003906 -11.476562 3.953125 -11.46875 3.921875 -11.4375 C 3.898438 -11.414062 3.875 -11.367188 3.84375 -11.296875 C 3.789062 -11.242188 3.757812 -11.195312 3.75 -11.15625 C 3.738281 -11.125 3.753906 -11.082031 3.796875 -11.03125 C 3.847656 -10.96875 3.890625 -10.9375 3.921875 -10.9375 C 3.960938 -10.945312 4.019531 -10.96875 4.09375 -11 C 4.1875 -11.03125 4.226562 -11.101562 4.21875 -11.21875 C 4.21875 -11.28125 4.210938 -11.332031 4.203125 -11.375 C 4.191406 -11.414062 4.148438 -11.445312 4.078125 -11.46875 Z M 7.3125 -11.234375 L 7.09375 -11.28125 L 6.96875 -11.203125 L 7 -11.0625 L 7.203125 -11 Z M 9.203125 -10.75 C 9.191406 -10.882812 9.175781 -10.992188 9.15625 -11.078125 C 9.132812 -11.171875 9.050781 -11.226562 8.90625 -11.25 C 8.757812 -11.28125 8.660156 -11.265625 8.609375 -11.203125 C 8.554688 -11.140625 8.488281 -11.046875 8.40625 -10.921875 C 8.351562 -10.804688 8.335938 -10.71875 8.359375 -10.65625 C 8.378906 -10.601562 8.429688 -10.53125 8.515625 -10.4375 C 8.585938 -10.363281 8.648438 -10.316406 8.703125 -10.296875 C 8.765625 -10.285156 8.847656 -10.304688 8.953125 -10.359375 C 9.046875 -10.398438 9.113281 -10.441406 9.15625 -10.484375 C 9.195312 -10.535156 9.210938 -10.625 9.203125 -10.75 Z M 5.21875 -10.890625 C 5.019531 -10.960938 4.863281 -11 4.75 -11 C 4.632812 -11 4.515625 -10.914062 4.390625 -10.75 C 4.265625 -10.59375 4.21875 -10.460938 4.25 -10.359375 C 4.28125 -10.253906 4.351562 -10.113281 4.46875 -9.9375 C 4.5625 -9.800781 4.65625 -9.726562 4.75 -9.71875 C 4.84375 -9.707031 4.972656 -9.722656 5.140625 -9.765625 C 5.273438 -9.816406 5.363281 -9.875 5.40625 -9.9375 C 5.457031 -10.007812 5.484375 -10.117188 5.484375 -10.265625 C 5.484375 -10.441406 5.476562 -10.570312 5.46875 -10.65625 C 5.457031 -10.75 5.375 -10.828125 5.21875 -10.890625 Z M 7.625 -10.5 C 7.601562 -10.5625 7.585938 -10.613281 7.578125 -10.65625 C 7.566406 -10.695312 7.53125 -10.722656 7.46875 -10.734375 C 7.332031 -10.742188 7.234375 -10.691406 7.171875 -10.578125 C 7.148438 -10.515625 7.15625 -10.46875 7.1875 -10.4375 C 7.226562 -10.414062 7.269531 -10.382812 7.3125 -10.34375 C 7.363281 -10.28125 7.429688 -10.273438 7.515625 -10.328125 C 7.597656 -10.378906 7.632812 -10.4375 7.625 -10.5 Z M 3.234375 -10.609375 C 3.023438 -10.722656 2.863281 -10.753906 2.75 -10.703125 C 2.632812 -10.648438 2.492188 -10.550781 2.328125 -10.40625 C 2.179688 -10.269531 2.117188 -10.148438 2.140625 -10.046875 C 2.160156 -9.941406 2.207031 -9.804688 2.28125 -9.640625 C 2.363281 -9.460938 2.441406 -9.34375 2.515625 -9.28125 C 2.585938 -9.21875 2.71875 -9.195312 2.90625 -9.21875 C 3.082031 -9.238281 3.195312 -9.289062 3.25 -9.375 C 3.3125 -9.457031 3.359375 -9.585938 3.390625 -9.765625 C 3.429688 -9.972656 3.460938 -10.140625 3.484375 -10.265625 C 3.503906 -10.390625 3.421875 -10.503906 3.234375 -10.609375 Z M 7.5625 -9.71875 C 7.539062 -9.78125 7.523438 -9.828125 7.515625 -9.859375 C 7.503906 -9.898438 7.460938 -9.921875 7.390625 -9.921875 C 7.328125 -9.921875 7.285156 -9.90625 7.265625 -9.875 C 7.253906 -9.851562 7.234375 -9.804688 7.203125 -9.734375 C 7.179688 -9.671875 7.164062 -9.617188 7.15625 -9.578125 C 7.144531 -9.535156 7.164062 -9.488281 7.21875 -9.4375 C 7.332031 -9.363281 7.441406 -9.363281 7.546875 -9.4375 C 7.609375 -9.476562 7.628906 -9.515625 7.609375 -9.546875 C 7.597656 -9.585938 7.582031 -9.644531 7.5625 -9.71875 Z M 10.5625 -9.546875 C 10.507812 -9.660156 10.457031 -9.742188 10.40625 -9.796875 C 10.363281 -9.859375 10.269531 -9.882812 10.125 -9.875 C 9.976562 -9.851562 9.863281 -9.820312 9.78125 -9.78125 C 9.707031 -9.738281 9.660156 -9.640625 9.640625 -9.484375 C 9.597656 -9.335938 9.617188 -9.242188 9.703125 -9.203125 C 9.785156 -9.171875 9.890625 -9.117188 10.015625 -9.046875 C 10.117188 -8.992188 10.203125 -8.960938 10.265625 -8.953125 C 10.328125 -8.953125 10.40625 -8.988281 10.5 -9.0625 C 10.582031 -9.144531 10.625 -9.21875 10.625 -9.28125 C 10.625 -9.34375 10.601562 -9.429688 10.5625 -9.546875 Z M 11.375 -9.578125 L 11.234375 -9.53125 L 11.203125 -9.328125 L 11.40625 -9.359375 L 11.5625 -9.484375 Z M 9.09375 -9.21875 C 9.070312 -9.300781 9.054688 -9.367188 9.046875 -9.421875 C 9.035156 -9.472656 8.984375 -9.503906 8.890625 -9.515625 C 8.785156 -9.523438 8.707031 -9.519531 8.65625 -9.5 C 8.601562 -9.488281 8.554688 -9.429688 8.515625 -9.328125 C 8.472656 -9.234375 8.460938 -9.160156 8.484375 -9.109375 C 8.503906 -9.054688 8.550781 -8.988281 8.625 -8.90625 C 8.695312 -8.84375 8.757812 -8.804688 8.8125 -8.796875 C 8.863281 -8.785156 8.9375 -8.804688 9.03125 -8.859375 C 9.113281 -8.898438 9.148438 -8.945312 9.140625 -9 C 9.128906 -9.050781 9.113281 -9.125 9.09375 -9.21875 Z M 4.421875 -8.6875 C 4.285156 -8.75 4.171875 -8.71875 4.078125 -8.59375 C 3.984375 -8.5 3.984375 -8.382812 4.078125 -8.25 C 4.109375 -8.1875 4.144531 -8.15625 4.1875 -8.15625 C 4.238281 -8.15625 4.304688 -8.160156 4.390625 -8.171875 C 4.441406 -8.191406 4.46875 -8.21875 4.46875 -8.25 C 4.476562 -8.289062 4.484375 -8.335938 4.484375 -8.390625 C 4.484375 -8.472656 4.488281 -8.535156 4.5 -8.578125 C 4.519531 -8.628906 4.492188 -8.664062 4.421875 -8.6875 Z M 2.578125 -8 L 2.5 -8.078125 L 2.34375 -8.046875 L 2.390625 -7.890625 L 2.546875 -7.859375 Z M 3.140625 -7.6875 C 3.046875 -7.6875 2.96875 -7.691406 2.90625 -7.703125 C 2.851562 -7.710938 2.804688 -7.675781 2.765625 -7.59375 C 2.734375 -7.5 2.738281 -7.429688 2.78125 -7.390625 C 2.820312 -7.347656 2.878906 -7.300781 2.953125 -7.25 C 3.023438 -7.1875 3.082031 -7.148438 3.125 -7.140625 C 3.164062 -7.128906 3.222656 -7.144531 3.296875 -7.1875 C 3.378906 -7.238281 3.425781 -7.285156 3.4375 -7.328125 C 3.457031 -7.367188 3.457031 -7.4375 3.4375 -7.53125 C 3.414062 -7.613281 3.378906 -7.660156 3.328125 -7.671875 C 3.285156 -7.679688 3.222656 -7.6875 3.140625 -7.6875 Z M 4.28125 -7 L 4.09375 -6.859375 L 4.078125 -6.640625 L 4.28125 -6.65625 L 4.40625 -6.796875 Z M 2.34375 -6.625 C 2.300781 -6.738281 2.238281 -6.796875 2.15625 -6.796875 C 2.070312 -6.796875 2.003906 -6.789062 1.953125 -6.78125 C 1.910156 -6.78125 1.878906 -6.738281 1.859375 -6.65625 C 1.828125 -6.5625 1.8125 -6.488281 1.8125 -6.4375 C 1.820312 -6.382812 1.863281 -6.332031 1.9375 -6.28125 C 2.007812 -6.226562 2.0625 -6.222656 2.09375 -6.265625 C 2.132812 -6.316406 2.1875 -6.367188 2.25 -6.421875 C 2.332031 -6.472656 2.363281 -6.539062 2.34375 -6.625 Z M 8.703125 -6.640625 C 8.566406 -6.640625 8.484375 -6.601562 8.453125 -6.53125 C 8.429688 -6.457031 8.398438 -6.359375 8.359375 -6.234375 C 8.328125 -6.128906 8.3125 -6.046875 8.3125 -5.984375 C 8.3125 -5.921875 8.347656 -5.851562 8.421875 -5.78125 C 8.523438 -5.695312 8.609375 -5.648438 8.671875 -5.640625 C 8.742188 -5.640625 8.828125 -5.675781 8.921875 -5.75 C 9.023438 -5.8125 9.078125 -5.875 9.078125 -5.9375 C 9.085938 -6 9.078125 -6.085938 9.046875 -6.203125 C 9.015625 -6.347656 8.984375 -6.457031 8.953125 -6.53125 C 8.921875 -6.601562 8.835938 -6.640625 8.703125 -6.640625 Z M 7.796875 -5.984375 C 7.703125 -6.035156 7.625 -6.066406 7.5625 -6.078125 C 7.507812 -6.085938 7.445312 -6.050781 7.375 -5.96875 C 7.3125 -5.894531 7.285156 -5.828125 7.296875 -5.765625 C 7.304688 -5.710938 7.332031 -5.648438 7.375 -5.578125 C 7.414062 -5.492188 7.457031 -5.453125 7.5 -5.453125 C 7.539062 -5.460938 7.601562 -5.472656 7.6875 -5.484375 C 7.769531 -5.492188 7.828125 -5.507812 7.859375 -5.53125 C 7.890625 -5.550781 7.914062 -5.597656 7.9375 -5.671875 C 7.945312 -5.753906 7.941406 -5.816406 7.921875 -5.859375 C 7.910156 -5.910156 7.867188 -5.953125 7.796875 -5.984375 Z M 10.515625 -5.890625 L 10.359375 -5.828125 L 10.390625 -5.671875 L 10.5625 -5.75 Z M 3.359375 -5.3125 C 3.359375 -5.4375 3.34375 -5.523438 3.3125 -5.578125 C 3.28125 -5.640625 3.203125 -5.695312 3.078125 -5.75 C 2.941406 -5.78125 2.835938 -5.789062 2.765625 -5.78125 C 2.703125 -5.78125 2.628906 -5.722656 2.546875 -5.609375 C 2.453125 -5.492188 2.40625 -5.398438 2.40625 -5.328125 C 2.414062 -5.253906 2.460938 -5.160156 2.546875 -5.046875 C 2.628906 -4.929688 2.703125 -4.875 2.765625 -4.875 C 2.835938 -4.882812 2.9375 -4.90625 3.0625 -4.9375 C 3.175781 -4.96875 3.253906 -5.007812 3.296875 -5.0625 C 3.335938 -5.113281 3.359375 -5.195312 3.359375 -5.3125 Z M 9.8125 -5.28125 L 9.65625 -5.21875 L 9.609375 -5.0625 L 9.75 -5.015625 L 9.84375 -5.109375 Z M 1.703125 -4.90625 L 1.5 -5 L 1.375 -4.8125 L 1.46875 -4.65625 L 1.6875 -4.65625 Z M 3.671875 -3.890625 C 3.453125 -4.054688 3.269531 -4.117188 3.125 -4.078125 C 2.976562 -4.035156 2.789062 -3.9375 2.5625 -3.78125 C 2.363281 -3.65625 2.25 -3.535156 2.21875 -3.421875 C 2.1875 -3.304688 2.195312 -3.132812 2.25 -2.90625 C 2.320312 -2.65625 2.382812 -2.457031 2.4375 -2.3125 C 2.488281 -2.164062 2.648438 -2.082031 2.921875 -2.0625 C 3.222656 -2.039062 3.4375 -2.078125 3.5625 -2.171875 C 3.6875 -2.265625 3.804688 -2.445312 3.921875 -2.71875 C 4.035156 -2.988281 4.070312 -3.203125 4.03125 -3.359375 C 4 -3.515625 3.878906 -3.691406 3.671875 -3.890625 Z M 11.65625 -3.78125 C 11.570312 -3.945312 11.476562 -4.039062 11.375 -4.0625 C 11.28125 -4.082031 11.140625 -4.078125 10.953125 -4.046875 C 10.796875 -4.003906 10.6875 -3.945312 10.625 -3.875 C 10.570312 -3.8125 10.535156 -3.695312 10.515625 -3.53125 C 10.503906 -3.363281 10.519531 -3.242188 10.5625 -3.171875 C 10.601562 -3.109375 10.703125 -3.039062 10.859375 -2.96875 C 11.003906 -2.90625 11.117188 -2.875 11.203125 -2.875 C 11.296875 -2.875 11.398438 -2.9375 11.515625 -3.0625 C 11.640625 -3.195312 11.71875 -3.3125 11.75 -3.40625 C 11.78125 -3.5 11.75 -3.625 11.65625 -3.78125 Z M 9.46875 -3.53125 C 9.269531 -3.550781 9.117188 -3.546875 9.015625 -3.515625 C 8.921875 -3.484375 8.832031 -3.382812 8.75 -3.21875 C 8.6875 -3.039062 8.671875 -2.90625 8.703125 -2.8125 C 8.734375 -2.71875 8.828125 -2.609375 8.984375 -2.484375 C 9.097656 -2.378906 9.195312 -2.34375 9.28125 -2.375 C 9.363281 -2.40625 9.472656 -2.460938 9.609375 -2.546875 C 9.753906 -2.628906 9.863281 -2.695312 9.9375 -2.75 C 10.007812 -2.8125 10.03125 -2.914062 10 -3.0625 C 9.957031 -3.25 9.898438 -3.367188 9.828125 -3.421875 C 9.753906 -3.472656 9.632812 -3.507812 9.46875 -3.53125 Z M 4.671875 -2.828125 L 4.421875 -2.734375 L 4.484375 -2.484375 L 4.71875 -2.5 L 4.796875 -2.671875 Z M 5.609375 -2.328125 C 5.503906 -2.378906 5.425781 -2.382812 5.375 -2.34375 C 5.320312 -2.300781 5.253906 -2.238281 5.171875 -2.15625 C 5.097656 -2.082031 5.050781 -2.019531 5.03125 -1.96875 C 5.019531 -1.925781 5.039062 -1.859375 5.09375 -1.765625 C 5.164062 -1.640625 5.210938 -1.539062 5.234375 -1.46875 C 5.265625 -1.394531 5.347656 -1.363281 5.484375 -1.375 C 5.617188 -1.394531 5.6875 -1.445312 5.6875 -1.53125 C 5.6875 -1.625 5.703125 -1.738281 5.734375 -1.875 C 5.742188 -1.988281 5.75 -2.078125 5.75 -2.140625 C 5.757812 -2.210938 5.710938 -2.273438 5.609375 -2.328125 Z M 8.015625 -1.59375 C 7.921875 -1.65625 7.847656 -1.675781 7.796875 -1.65625 C 7.742188 -1.644531 7.6875 -1.601562 7.625 -1.53125 C 7.539062 -1.46875 7.488281 -1.410156 7.46875 -1.359375 C 7.445312 -1.316406 7.457031 -1.25 7.5 -1.15625 C 7.539062 -1.039062 7.582031 -0.957031 7.625 -0.90625 C 7.664062 -0.863281 7.742188 -0.847656 7.859375 -0.859375 C 7.984375 -0.867188 8.066406 -0.894531 8.109375 -0.9375 C 8.160156 -0.988281 8.195312 -1.078125 8.21875 -1.203125 C 8.257812 -1.304688 8.257812 -1.382812 8.21875 -1.4375 C 8.175781 -1.488281 8.109375 -1.539062 8.015625 -1.59375 Z M 3.703125 -1.265625 L 3.515625 -1.234375 L 3.5625 -1.15625 L 3.6875 -1.125 Z M 3.703125 -1.265625 "/></g></g></g><g fill="#000000" fill-opacity="1"><g transform="translate(45.187193, 20.852453)"><g><path d="M 5.40625 0.171875 C 3.894531 0.171875 2.695312 -0.195312 1.8125 -0.9375 C 0.925781 -1.675781 0.484375 -2.847656 0.484375 -4.453125 L 0.484375 -4.578125 C 0.503906 -6.054688 0.957031 -7.179688 1.84375 -7.953125 C 2.738281 -8.734375 3.921875 -9.125 5.390625 -9.125 C 6.515625 -9.125 7.4375 -8.90625 8.15625 -8.46875 C 8.875 -8.039062 9.40625 -7.472656 9.75 -6.765625 C 10.101562 -6.066406 10.28125 -5.289062 10.28125 -4.4375 L 10.28125 -3.921875 C 10.28125 -3.796875 10.234375 -3.6875 10.140625 -3.59375 C 10.054688 -3.5 9.953125 -3.453125 9.828125 -3.453125 L 4.703125 -3.453125 L 4.703125 -3.375 C 4.703125 -3.03125 4.75 -2.769531 4.84375 -2.59375 C 4.9375 -2.414062 5.113281 -2.328125 5.375 -2.328125 C 5.46875 -2.328125 5.550781 -2.351562 5.625 -2.40625 C 5.695312 -2.46875 5.773438 -2.539062 5.859375 -2.625 C 5.960938 -2.726562 6.050781 -2.796875 6.125 -2.828125 C 6.195312 -2.859375 6.300781 -2.875 6.4375 -2.875 L 9.6875 -2.875 C 9.800781 -2.875 9.894531 -2.835938 9.96875 -2.765625 C 10.039062 -2.703125 10.070312 -2.613281 10.0625 -2.5 C 10.050781 -2.28125 9.953125 -2.015625 9.765625 -1.703125 C 9.578125 -1.398438 9.289062 -1.101562 8.90625 -0.8125 C 8.53125 -0.53125 8.050781 -0.296875 7.46875 -0.109375 C 6.882812 0.078125 6.195312 0.171875 5.40625 0.171875 Z M 2.921875 -7.734375 C 2.816406 -7.734375 2.753906 -7.707031 2.734375 -7.65625 C 2.710938 -7.613281 2.6875 -7.539062 2.65625 -7.4375 C 2.625 -7.375 2.625 -7.328125 2.65625 -7.296875 C 2.6875 -7.265625 2.726562 -7.226562 2.78125 -7.1875 C 2.84375 -7.132812 2.894531 -7.085938 2.9375 -7.046875 C 2.976562 -7.015625 3.03125 -7.023438 3.09375 -7.078125 C 3.175781 -7.128906 3.226562 -7.175781 3.25 -7.21875 C 3.269531 -7.269531 3.265625 -7.347656 3.234375 -7.453125 C 3.210938 -7.554688 3.179688 -7.628906 3.140625 -7.671875 C 3.097656 -7.710938 3.023438 -7.734375 2.921875 -7.734375 Z M 4.703125 -5.609375 L 5.21875 -5.609375 C 5.207031 -5.628906 5.191406 -5.65625 5.171875 -5.6875 C 5.117188 -5.894531 5.078125 -6.070312 5.046875 -6.21875 C 5.023438 -6.375 5.035156 -6.515625 5.078125 -6.640625 C 5.160156 -6.679688 5.265625 -6.703125 5.390625 -6.703125 C 5.847656 -6.703125 6.078125 -6.34375 6.078125 -5.625 L 5.21875 -5.609375 C 5.300781 -5.285156 5.363281 -5 5.40625 -4.75 C 5.445312 -4.5 5.53125 -4.300781 5.65625 -4.15625 C 5.789062 -4.007812 6.03125 -3.929688 6.375 -3.921875 C 6.800781 -3.910156 7.144531 -3.941406 7.40625 -4.015625 C 7.664062 -4.085938 7.875 -4.226562 8.03125 -4.4375 C 8.195312 -4.65625 8.347656 -4.96875 8.484375 -5.375 C 8.597656 -5.71875 8.609375 -5.976562 8.515625 -6.15625 C 8.421875 -6.332031 8.253906 -6.488281 8.015625 -6.625 C 7.785156 -6.757812 7.53125 -6.9375 7.25 -7.15625 C 6.914062 -7.40625 6.640625 -7.539062 6.421875 -7.5625 C 6.210938 -7.582031 5.9375 -7.476562 5.59375 -7.25 C 5.300781 -7.039062 5.128906 -6.835938 5.078125 -6.640625 C 4.828125 -6.503906 4.703125 -6.160156 4.703125 -5.609375 Z M 2.21875 -6.703125 C 2.144531 -6.734375 2.085938 -6.734375 2.046875 -6.703125 C 2.015625 -6.679688 1.972656 -6.644531 1.921875 -6.59375 C 1.859375 -6.519531 1.800781 -6.460938 1.75 -6.421875 C 1.695312 -6.378906 1.691406 -6.316406 1.734375 -6.234375 C 1.796875 -6.140625 1.851562 -6.101562 1.90625 -6.125 C 1.96875 -6.15625 2.050781 -6.179688 2.15625 -6.203125 C 2.257812 -6.234375 2.316406 -6.304688 2.328125 -6.421875 C 2.335938 -6.484375 2.335938 -6.535156 2.328125 -6.578125 C 2.328125 -6.628906 2.289062 -6.671875 2.21875 -6.703125 Z M 3.5625 -6.515625 C 3.425781 -6.585938 3.316406 -6.617188 3.234375 -6.609375 C 3.160156 -6.597656 3.082031 -6.539062 3 -6.4375 C 2.894531 -6.320312 2.832031 -6.222656 2.8125 -6.140625 C 2.800781 -6.066406 2.835938 -5.96875 2.921875 -5.84375 C 2.984375 -5.726562 3.050781 -5.679688 3.125 -5.703125 C 3.195312 -5.722656 3.296875 -5.742188 3.421875 -5.765625 C 3.535156 -5.785156 3.625 -5.800781 3.6875 -5.8125 C 3.757812 -5.832031 3.800781 -5.90625 3.8125 -6.03125 C 3.832031 -6.175781 3.828125 -6.28125 3.796875 -6.34375 C 3.765625 -6.40625 3.6875 -6.460938 3.5625 -6.515625 Z M 2.828125 -5.078125 C 2.765625 -5.160156 2.703125 -5.203125 2.640625 -5.203125 C 2.585938 -5.203125 2.515625 -5.179688 2.421875 -5.140625 C 2.316406 -5.109375 2.25 -5.070312 2.21875 -5.03125 C 2.1875 -4.988281 2.171875 -4.914062 2.171875 -4.8125 C 2.171875 -4.6875 2.175781 -4.585938 2.1875 -4.515625 C 2.207031 -4.453125 2.273438 -4.40625 2.390625 -4.375 C 2.515625 -4.332031 2.601562 -4.332031 2.65625 -4.375 C 2.71875 -4.414062 2.789062 -4.492188 2.875 -4.609375 C 2.9375 -4.703125 2.960938 -4.78125 2.953125 -4.84375 C 2.941406 -4.90625 2.898438 -4.984375 2.828125 -5.078125 Z M 3.703125 -4.90625 C 3.609375 -4.914062 3.550781 -4.894531 3.53125 -4.84375 C 3.507812 -4.800781 3.472656 -4.734375 3.421875 -4.640625 C 3.390625 -4.546875 3.359375 -4.472656 3.328125 -4.421875 C 3.304688 -4.378906 3.332031 -4.328125 3.40625 -4.265625 C 3.488281 -4.179688 3.554688 -4.140625 3.609375 -4.140625 C 3.671875 -4.140625 3.753906 -4.171875 3.859375 -4.234375 C 3.941406 -4.285156 4.003906 -4.332031 4.046875 -4.375 C 4.097656 -4.425781 4.109375 -4.507812 4.078125 -4.625 C 4.054688 -4.738281 4.015625 -4.8125 3.953125 -4.84375 C 3.898438 -4.875 3.816406 -4.894531 3.703125 -4.90625 Z M 2.140625 -4.234375 C 1.992188 -4.265625 1.890625 -4.265625 1.828125 -4.234375 C 1.765625 -4.203125 1.691406 -4.128906 1.609375 -4.015625 C 1.554688 -3.910156 1.550781 -3.832031 1.59375 -3.78125 C 1.632812 -3.726562 1.6875 -3.65625 1.75 -3.5625 C 1.8125 -3.476562 1.863281 -3.425781 1.90625 -3.40625 C 1.957031 -3.394531 2.019531 -3.40625 2.09375 -3.4375 C 2.25 -3.5 2.328125 -3.609375 2.328125 -3.765625 C 2.328125 -3.890625 2.328125 -3.988281 2.328125 -4.0625 C 2.328125 -4.144531 2.265625 -4.203125 2.140625 -4.234375 Z M 2.71875 -2.796875 C 2.71875 -2.878906 2.71875 -2.941406 2.71875 -2.984375 C 2.726562 -3.035156 2.695312 -3.066406 2.625 -3.078125 C 2.550781 -3.097656 2.5 -3.09375 2.46875 -3.0625 C 2.4375 -3.039062 2.398438 -2.992188 2.359375 -2.921875 C 2.328125 -2.878906 2.316406 -2.84375 2.328125 -2.8125 C 2.347656 -2.78125 2.375 -2.742188 2.40625 -2.703125 C 2.457031 -2.640625 2.492188 -2.585938 2.515625 -2.546875 C 2.535156 -2.515625 2.582031 -2.507812 2.65625 -2.53125 C 2.71875 -2.550781 2.742188 -2.582031 2.734375 -2.625 C 2.722656 -2.675781 2.71875 -2.734375 2.71875 -2.796875 Z M 3.890625 -2.828125 C 3.785156 -2.921875 3.664062 -2.9375 3.53125 -2.875 C 3.4375 -2.8125 3.367188 -2.765625 3.328125 -2.734375 C 3.285156 -2.703125 3.269531 -2.632812 3.28125 -2.53125 C 3.300781 -2.425781 3.34375 -2.367188 3.40625 -2.359375 C 3.46875 -2.347656 3.546875 -2.335938 3.640625 -2.328125 C 3.742188 -2.316406 3.828125 -2.304688 3.890625 -2.296875 C 3.953125 -2.285156 4.007812 -2.328125 4.0625 -2.421875 C 4.101562 -2.515625 4.101562 -2.585938 4.0625 -2.640625 C 4.03125 -2.691406 3.972656 -2.753906 3.890625 -2.828125 Z M 7.125 -2.359375 C 7.101562 -2.410156 7.078125 -2.441406 7.046875 -2.453125 C 7.015625 -2.472656 6.972656 -2.484375 6.921875 -2.484375 C 6.816406 -2.484375 6.75 -2.445312 6.71875 -2.375 C 6.6875 -2.28125 6.707031 -2.207031 6.78125 -2.15625 C 6.832031 -2.113281 6.875 -2.082031 6.90625 -2.0625 C 6.9375 -2.039062 6.976562 -2.046875 7.03125 -2.078125 C 7.09375 -2.128906 7.125 -2.171875 7.125 -2.203125 C 7.132812 -2.234375 7.132812 -2.285156 7.125 -2.359375 Z M 6.359375 -1.578125 C 6.347656 -1.722656 6.335938 -1.832031 6.328125 -1.90625 C 6.328125 -1.988281 6.257812 -2.046875 6.125 -2.078125 C 5.945312 -2.128906 5.8125 -2.148438 5.71875 -2.140625 C 5.632812 -2.140625 5.546875 -2.0625 5.453125 -1.90625 C 5.359375 -1.769531 5.34375 -1.664062 5.40625 -1.59375 C 5.476562 -1.53125 5.5625 -1.4375 5.65625 -1.3125 C 5.738281 -1.207031 5.8125 -1.140625 5.875 -1.109375 C 5.9375 -1.085938 6.023438 -1.101562 6.140625 -1.15625 C 6.253906 -1.195312 6.320312 -1.25 6.34375 -1.3125 C 6.363281 -1.375 6.367188 -1.460938 6.359375 -1.578125 Z M 8.34375 -1.703125 C 8.28125 -1.835938 8.226562 -1.941406 8.1875 -2.015625 C 8.15625 -2.097656 8.054688 -2.128906 7.890625 -2.109375 C 7.710938 -2.085938 7.578125 -2.050781 7.484375 -2 C 7.390625 -1.957031 7.328125 -1.847656 7.296875 -1.671875 C 7.265625 -1.492188 7.285156 -1.367188 7.359375 -1.296875 C 7.429688 -1.234375 7.546875 -1.15625 7.703125 -1.0625 C 7.859375 -0.96875 7.984375 -0.90625 8.078125 -0.875 C 8.171875 -0.84375 8.285156 -0.890625 8.421875 -1.015625 C 8.566406 -1.128906 8.609375 -1.234375 8.546875 -1.328125 C 8.484375 -1.421875 8.414062 -1.546875 8.34375 -1.703125 Z M 4.28125 -1.734375 L 4.109375 -1.84375 L 3.984375 -1.671875 L 4.109375 -1.546875 L 4.28125 -1.53125 Z M 3.671875 -1.375 C 3.585938 -1.382812 3.53125 -1.375 3.5 -1.34375 C 3.46875 -1.320312 3.4375 -1.273438 3.40625 -1.203125 C 3.363281 -1.128906 3.332031 -1.070312 3.3125 -1.03125 C 3.300781 -0.988281 3.328125 -0.9375 3.390625 -0.875 C 3.472656 -0.8125 3.535156 -0.765625 3.578125 -0.734375 C 3.617188 -0.703125 3.6875 -0.707031 3.78125 -0.75 C 3.863281 -0.800781 3.894531 -0.851562 3.875 -0.90625 C 3.863281 -0.96875 3.851562 -1.046875 3.84375 -1.140625 C 3.820312 -1.203125 3.800781 -1.253906 3.78125 -1.296875 C 3.769531 -1.335938 3.734375 -1.363281 3.671875 -1.375 Z M 3.671875 -1.375 "/></g></g></g><g fill="#000000" fill-opacity="1"><g transform="translate(55.898188, 20.852453)"><g><path d="M 1.234375 0 C 1.109375 0 1 -0.046875 0.90625 -0.140625 C 0.820312 -0.234375 0.78125 -0.34375 0.78125 -0.46875 L 0.78125 -8.484375 C 0.78125 -8.609375 0.820312 -8.71875 0.90625 -8.8125 C 1 -8.90625 1.109375 -8.953125 1.234375 -8.953125 L 4.25 -8.953125 C 4.375 -8.953125 4.484375 -8.90625 4.578125 -8.8125 C 4.671875 -8.71875 4.71875 -8.609375 4.71875 -8.484375 L 4.71875 -7.90625 C 5 -8.238281 5.390625 -8.523438 5.890625 -8.765625 C 6.398438 -9.003906 6.957031 -9.125 7.5625 -9.125 C 8.15625 -9.125 8.703125 -8.984375 9.203125 -8.703125 C 9.703125 -8.429688 10.109375 -8.007812 10.421875 -7.4375 C 10.742188 -6.863281 10.90625 -6.125 10.90625 -5.21875 L 10.90625 -0.46875 C 10.90625 -0.34375 10.859375 -0.234375 10.765625 -0.140625 C 10.671875 -0.046875 10.5625 0 10.4375 0 L 7.15625 0 C 7.03125 0 6.921875 -0.046875 6.828125 -0.140625 C 6.734375 -0.234375 6.6875 -0.34375 6.6875 -0.46875 L 6.6875 -5.09375 C 6.6875 -5.71875 6.398438 -6.03125 5.828125 -6.03125 C 5.253906 -6.03125 4.96875 -5.71875 4.96875 -5.09375 L 4.96875 -0.46875 C 4.96875 -0.34375 4.921875 -0.234375 4.828125 -0.140625 C 4.742188 -0.046875 4.632812 0 4.5 0 Z M 2.171875 -8.640625 C 2.066406 -8.648438 1.988281 -8.644531 1.9375 -8.625 C 1.882812 -8.601562 1.835938 -8.550781 1.796875 -8.46875 C 1.742188 -8.375 1.722656 -8.300781 1.734375 -8.25 C 1.753906 -8.195312 1.804688 -8.132812 1.890625 -8.0625 C 1.960938 -7.988281 2.023438 -7.9375 2.078125 -7.90625 C 2.128906 -7.882812 2.195312 -7.898438 2.28125 -7.953125 C 2.382812 -8.003906 2.445312 -8.054688 2.46875 -8.109375 C 2.5 -8.160156 2.507812 -8.238281 2.5 -8.34375 C 2.46875 -8.457031 2.429688 -8.523438 2.390625 -8.546875 C 2.347656 -8.578125 2.273438 -8.609375 2.171875 -8.640625 Z M 3.109375 -8.1875 L 2.9375 -8.28125 L 2.796875 -8.1875 L 2.78125 -7.96875 L 3.03125 -7.96875 Z M 3.75 -7.203125 L 3.609375 -7.3125 L 3.453125 -7.21875 L 3.53125 -7.078125 L 3.71875 -7.015625 Z M 4.546875 -7.09375 L 4.359375 -7.203125 L 4.234375 -7.015625 L 4.3125 -6.859375 L 4.53125 -6.859375 Z M 2.34375 -7.09375 C 2.300781 -7.132812 2.265625 -7.15625 2.234375 -7.15625 C 2.210938 -7.164062 2.164062 -7.164062 2.09375 -7.15625 C 1.988281 -7.132812 1.929688 -7.085938 1.921875 -7.015625 C 1.910156 -6.921875 1.953125 -6.851562 2.046875 -6.8125 C 2.117188 -6.78125 2.1875 -6.796875 2.25 -6.859375 C 2.300781 -6.910156 2.332031 -6.945312 2.34375 -6.96875 C 2.363281 -6.988281 2.363281 -7.03125 2.34375 -7.09375 Z M 6.6875 -7.125 C 6.613281 -7.15625 6.550781 -7.171875 6.5 -7.171875 C 6.445312 -7.171875 6.394531 -7.140625 6.34375 -7.078125 C 6.289062 -6.984375 6.257812 -6.910156 6.25 -6.859375 C 6.238281 -6.804688 6.265625 -6.734375 6.328125 -6.640625 C 6.390625 -6.566406 6.445312 -6.539062 6.5 -6.5625 C 6.550781 -6.582031 6.617188 -6.609375 6.703125 -6.640625 C 6.835938 -6.679688 6.90625 -6.769531 6.90625 -6.90625 C 6.90625 -7.019531 6.832031 -7.09375 6.6875 -7.125 Z M 5.328125 -7.03125 C 5.222656 -7.070312 5.140625 -7.09375 5.078125 -7.09375 C 5.023438 -7.101562 4.96875 -7.0625 4.90625 -6.96875 C 4.832031 -6.882812 4.804688 -6.816406 4.828125 -6.765625 C 4.859375 -6.710938 4.898438 -6.640625 4.953125 -6.546875 C 4.992188 -6.472656 5.035156 -6.425781 5.078125 -6.40625 C 5.128906 -6.382812 5.203125 -6.390625 5.296875 -6.421875 C 5.390625 -6.441406 5.457031 -6.46875 5.5 -6.5 C 5.539062 -6.53125 5.5625 -6.597656 5.5625 -6.703125 C 5.5625 -6.804688 5.546875 -6.878906 5.515625 -6.921875 C 5.484375 -6.960938 5.421875 -7 5.328125 -7.03125 Z M 8.984375 -6.625 C 8.867188 -6.71875 8.773438 -6.785156 8.703125 -6.828125 C 8.628906 -6.878906 8.53125 -6.867188 8.40625 -6.796875 C 8.269531 -6.710938 8.207031 -6.628906 8.21875 -6.546875 C 8.226562 -6.472656 8.253906 -6.359375 8.296875 -6.203125 C 8.316406 -6.054688 8.335938 -5.9375 8.359375 -5.84375 C 8.378906 -5.757812 8.46875 -5.703125 8.625 -5.671875 C 8.78125 -5.660156 8.882812 -5.691406 8.9375 -5.765625 C 8.988281 -5.847656 9.050781 -5.960938 9.125 -6.109375 C 9.164062 -6.234375 9.175781 -6.328125 9.15625 -6.390625 C 9.132812 -6.453125 9.078125 -6.53125 8.984375 -6.625 Z M 4.046875 -6.46875 C 3.984375 -6.5625 3.929688 -6.640625 3.890625 -6.703125 C 3.859375 -6.765625 3.785156 -6.78125 3.671875 -6.75 C 3.554688 -6.71875 3.488281 -6.664062 3.46875 -6.59375 C 3.457031 -6.53125 3.445312 -6.4375 3.4375 -6.3125 C 3.425781 -6.15625 3.503906 -6.039062 3.671875 -5.96875 C 3.742188 -5.945312 3.796875 -5.953125 3.828125 -5.984375 C 3.867188 -6.015625 3.914062 -6.066406 3.96875 -6.140625 C 4.019531 -6.203125 4.054688 -6.25 4.078125 -6.28125 C 4.097656 -6.320312 4.085938 -6.382812 4.046875 -6.46875 Z M 2.1875 -6.140625 C 2.050781 -6.171875 1.945312 -6.128906 1.875 -6.015625 C 1.820312 -5.929688 1.78125 -5.863281 1.75 -5.8125 C 1.726562 -5.757812 1.75 -5.691406 1.8125 -5.609375 C 1.875 -5.523438 1.929688 -5.492188 1.984375 -5.515625 C 2.046875 -5.546875 2.125 -5.578125 2.21875 -5.609375 C 2.289062 -5.640625 2.332031 -5.671875 2.34375 -5.703125 C 2.351562 -5.742188 2.359375 -5.804688 2.359375 -5.890625 C 2.359375 -5.960938 2.34375 -6.015625 2.3125 -6.046875 C 2.289062 -6.085938 2.25 -6.117188 2.1875 -6.140625 Z M 10.34375 -5.375 L 10.234375 -5.421875 L 10.078125 -5.34375 L 10.171875 -5.203125 L 10.34375 -5.203125 Z M 1.4375 -5.15625 L 1.3125 -5.28125 L 1.1875 -5.140625 L 1.25 -5.015625 L 1.40625 -4.984375 Z M 4.203125 -4.875 C 4.171875 -5 4.097656 -5.070312 3.984375 -5.09375 C 3.859375 -5.113281 3.769531 -5.066406 3.71875 -4.953125 C 3.65625 -4.835938 3.664062 -4.738281 3.75 -4.65625 C 3.8125 -4.601562 3.859375 -4.578125 3.890625 -4.578125 C 3.921875 -4.585938 3.972656 -4.601562 4.046875 -4.625 C 4.097656 -4.65625 4.140625 -4.6875 4.171875 -4.71875 C 4.203125 -4.75 4.210938 -4.800781 4.203125 -4.875 Z M 3.25 -4.375 C 3.132812 -4.53125 3.03125 -4.628906 2.9375 -4.671875 C 2.84375 -4.722656 2.703125 -4.71875 2.515625 -4.65625 C 2.328125 -4.613281 2.226562 -4.539062 2.21875 -4.4375 C 2.207031 -4.332031 2.195312 -4.191406 2.1875 -4.015625 C 2.175781 -3.828125 2.175781 -3.679688 2.1875 -3.578125 C 2.195312 -3.472656 2.285156 -3.382812 2.453125 -3.3125 C 2.617188 -3.257812 2.734375 -3.28125 2.796875 -3.375 C 2.859375 -3.46875 2.941406 -3.582031 3.046875 -3.71875 C 3.160156 -3.851562 3.25 -3.957031 3.3125 -4.03125 C 3.375 -4.101562 3.351562 -4.21875 3.25 -4.375 Z M 8.984375 -4.359375 C 8.773438 -4.515625 8.597656 -4.613281 8.453125 -4.65625 C 8.316406 -4.707031 8.148438 -4.648438 7.953125 -4.484375 C 7.691406 -4.304688 7.507812 -4.144531 7.40625 -4 C 7.300781 -3.863281 7.289062 -3.648438 7.375 -3.359375 C 7.476562 -3.046875 7.609375 -2.851562 7.765625 -2.78125 C 7.929688 -2.71875 8.179688 -2.6875 8.515625 -2.6875 C 8.785156 -2.6875 8.960938 -2.75 9.046875 -2.875 C 9.128906 -3 9.21875 -3.191406 9.3125 -3.453125 C 9.375 -3.679688 9.378906 -3.851562 9.328125 -3.96875 C 9.285156 -4.082031 9.171875 -4.210938 8.984375 -4.359375 Z M 4.15625 -3.234375 C 4.082031 -3.242188 4.023438 -3.210938 3.984375 -3.140625 C 3.953125 -3.085938 3.921875 -3.039062 3.890625 -3 C 3.867188 -2.96875 3.878906 -2.929688 3.921875 -2.890625 C 4.015625 -2.796875 4.125 -2.785156 4.25 -2.859375 C 4.300781 -2.878906 4.328125 -2.910156 4.328125 -2.953125 C 4.328125 -2.992188 4.320312 -3.046875 4.3125 -3.109375 C 4.300781 -3.171875 4.25 -3.210938 4.15625 -3.234375 Z M 10.578125 -2.65625 L 10.359375 -2.703125 L 10.265625 -2.53125 L 10.328125 -2.375 L 10.484375 -2.453125 Z M 4.203125 -2.390625 L 3.984375 -2.4375 L 3.984375 -2.234375 L 4.109375 -2.140625 L 4.25 -2.234375 Z M 2.265625 -2.234375 L 2.109375 -2.328125 L 2.03125 -2.171875 L 2.140625 -2.0625 L 2.328125 -2.0625 Z M 8.71875 -1.890625 L 8.625 -2.03125 L 8.484375 -1.890625 L 8.5625 -1.765625 L 8.671875 -1.796875 Z M 2.546875 -1.53125 C 2.460938 -1.601562 2.394531 -1.648438 2.34375 -1.671875 C 2.289062 -1.691406 2.222656 -1.679688 2.140625 -1.640625 C 2.046875 -1.578125 2 -1.515625 2 -1.453125 C 2 -1.398438 2.007812 -1.320312 2.03125 -1.21875 C 2.0625 -1.113281 2.085938 -1.035156 2.109375 -0.984375 C 2.140625 -0.929688 2.207031 -0.898438 2.3125 -0.890625 C 2.425781 -0.878906 2.503906 -0.890625 2.546875 -0.921875 C 2.597656 -0.960938 2.648438 -1.035156 2.703125 -1.140625 C 2.742188 -1.222656 2.75 -1.289062 2.71875 -1.34375 C 2.6875 -1.394531 2.628906 -1.457031 2.546875 -1.53125 Z M 4.296875 -1.34375 C 4.179688 -1.445312 4.0625 -1.460938 3.9375 -1.390625 C 3.832031 -1.328125 3.75 -1.273438 3.6875 -1.234375 C 3.625 -1.203125 3.609375 -1.128906 3.640625 -1.015625 C 3.671875 -0.878906 3.707031 -0.78125 3.75 -0.71875 C 3.789062 -0.65625 3.890625 -0.617188 4.046875 -0.609375 C 4.171875 -0.585938 4.25 -0.613281 4.28125 -0.6875 C 4.3125 -0.757812 4.351562 -0.859375 4.40625 -0.984375 C 4.445312 -1.078125 4.457031 -1.144531 4.4375 -1.1875 C 4.414062 -1.226562 4.367188 -1.28125 4.296875 -1.34375 Z M 8.15625 -1.1875 C 8.050781 -1.226562 7.96875 -1.210938 7.90625 -1.140625 C 7.851562 -1.066406 7.863281 -0.984375 7.9375 -0.890625 C 8 -0.785156 8.070312 -0.753906 8.15625 -0.796875 C 8.238281 -0.816406 8.28125 -0.882812 8.28125 -1 C 8.28125 -1.101562 8.238281 -1.164062 8.15625 -1.1875 Z M 10.390625 -1.0625 C 10.316406 -1.132812 10.253906 -1.160156 10.203125 -1.140625 C 10.140625 -1.097656 10.09375 -1.066406 10.0625 -1.046875 C 10.03125 -1.023438 10.019531 -0.976562 10.03125 -0.90625 C 10.039062 -0.851562 10.066406 -0.820312 10.109375 -0.8125 C 10.148438 -0.800781 10.195312 -0.789062 10.25 -0.78125 C 10.363281 -0.757812 10.445312 -0.785156 10.5 -0.859375 C 10.519531 -0.921875 10.515625 -0.960938 10.484375 -0.984375 C 10.460938 -1.003906 10.429688 -1.03125 10.390625 -1.0625 Z M 1.703125 -0.921875 L 1.484375 -0.953125 L 1.328125 -0.8125 L 1.421875 -0.578125 L 1.671875 -0.6875 Z M 1.703125 -0.921875 "/></g></g></g><g fill="#000000" fill-opacity="1"><g transform="translate(67.486006, 20.852453)"><g><path d="M 1.328125 -9.890625 C 1.203125 -9.890625 1.09375 -9.9375 1 -10.03125 C 0.90625 -10.125 0.859375 -10.234375 0.859375 -10.359375 L 0.859375 -12.4375 C 0.859375 -12.5625 0.90625 -12.671875 1 -12.765625 C 1.09375 -12.859375 1.203125 -12.90625 1.328125 -12.90625 L 4.234375 -12.90625 C 4.359375 -12.90625 4.46875 -12.859375 4.5625 -12.765625 C 4.65625 -12.671875 4.703125 -12.5625 4.703125 -12.4375 L 4.703125 -10.359375 C 4.703125 -10.234375 4.65625 -10.125 4.5625 -10.03125 C 4.46875 -9.9375 4.359375 -9.890625 4.234375 -9.890625 Z M 2.1875 -11.859375 L 2.046875 -11.765625 L 2.078125 -11.578125 L 2.3125 -11.546875 L 2.375 -11.765625 Z M 2.84375 -11.40625 L 2.71875 -11.453125 L 2.546875 -11.390625 L 2.65625 -11.203125 L 2.796875 -11.28125 Z M 1.765625 -11.1875 L 1.5625 -11.125 L 1.5625 -10.96875 L 1.6875 -10.875 L 1.84375 -10.96875 Z M 3.578125 -11.09375 C 3.503906 -11.09375 3.453125 -11.09375 3.421875 -11.09375 C 3.390625 -11.09375 3.363281 -11.066406 3.34375 -11.015625 C 3.3125 -10.953125 3.304688 -10.90625 3.328125 -10.875 C 3.359375 -10.851562 3.394531 -10.820312 3.4375 -10.78125 C 3.488281 -10.738281 3.53125 -10.703125 3.5625 -10.671875 C 3.59375 -10.640625 3.640625 -10.644531 3.703125 -10.6875 C 3.804688 -10.75 3.84375 -10.84375 3.8125 -10.96875 C 3.789062 -11.039062 3.765625 -11.078125 3.734375 -11.078125 C 3.703125 -11.078125 3.648438 -11.082031 3.578125 -11.09375 Z M 1.234375 0 C 1.109375 0 1 -0.046875 0.90625 -0.140625 C 0.820312 -0.234375 0.78125 -0.34375 0.78125 -0.46875 L 0.78125 -8.484375 C 0.78125 -8.609375 0.820312 -8.71875 0.90625 -8.8125 C 1 -8.90625 1.109375 -8.953125 1.234375 -8.953125 L 4.3125 -8.953125 C 4.4375 -8.953125 4.546875 -8.90625 4.640625 -8.8125 C 4.734375 -8.71875 4.78125 -8.609375 4.78125 -8.484375 L 4.78125 -0.46875 C 4.78125 -0.34375 4.734375 -0.234375 4.640625 -0.140625 C 4.546875 -0.046875 4.4375 0 4.3125 0 Z M 2.5625 -8 L 2.390625 -8.03125 L 2.328125 -7.84375 L 2.5 -7.6875 L 2.6875 -7.828125 Z M 4.140625 -7.59375 C 4.117188 -7.738281 4.046875 -7.820312 3.921875 -7.84375 C 3.847656 -7.851562 3.800781 -7.84375 3.78125 -7.8125 C 3.757812 -7.78125 3.734375 -7.726562 3.703125 -7.65625 C 3.640625 -7.550781 3.640625 -7.460938 3.703125 -7.390625 C 3.796875 -7.304688 3.882812 -7.285156 3.96875 -7.328125 C 4.039062 -7.359375 4.085938 -7.390625 4.109375 -7.421875 C 4.140625 -7.453125 4.148438 -7.507812 4.140625 -7.59375 Z M 1.890625 -7.4375 L 1.765625 -7.46875 L 1.609375 -7.375 L 1.734375 -7.21875 L 1.90625 -7.265625 Z M 3.421875 -7.046875 C 3.304688 -7.160156 3.207031 -7.203125 3.125 -7.171875 C 3.039062 -7.140625 2.925781 -7.09375 2.78125 -7.03125 C 2.65625 -6.976562 2.5625 -6.925781 2.5 -6.875 C 2.445312 -6.820312 2.425781 -6.726562 2.4375 -6.59375 C 2.46875 -6.425781 2.503906 -6.3125 2.546875 -6.25 C 2.585938 -6.1875 2.691406 -6.144531 2.859375 -6.125 C 3.015625 -6.09375 3.132812 -6.085938 3.21875 -6.109375 C 3.300781 -6.128906 3.378906 -6.207031 3.453125 -6.34375 C 3.546875 -6.5 3.59375 -6.625 3.59375 -6.71875 C 3.59375 -6.8125 3.535156 -6.921875 3.421875 -7.046875 Z M 4.265625 -6.1875 C 4.222656 -6.226562 4.1875 -6.234375 4.15625 -6.203125 C 4.132812 -6.179688 4.109375 -6.15625 4.078125 -6.125 C 4.035156 -6.09375 4 -6.0625 3.96875 -6.03125 C 3.945312 -6.007812 3.945312 -5.976562 3.96875 -5.9375 C 4.03125 -5.820312 4.109375 -5.769531 4.203125 -5.78125 C 4.285156 -5.789062 4.34375 -5.859375 4.375 -5.984375 C 4.382812 -6.078125 4.347656 -6.144531 4.265625 -6.1875 Z M 1.90625 -5.859375 C 1.882812 -6.015625 1.8125 -6.101562 1.6875 -6.125 C 1.601562 -6.132812 1.546875 -6.125 1.515625 -6.09375 C 1.492188 -6.070312 1.460938 -6.023438 1.421875 -5.953125 C 1.390625 -5.890625 1.382812 -5.84375 1.40625 -5.8125 C 1.425781 -5.789062 1.460938 -5.757812 1.515625 -5.71875 C 1.546875 -5.664062 1.578125 -5.628906 1.609375 -5.609375 C 1.640625 -5.597656 1.675781 -5.601562 1.71875 -5.625 C 1.789062 -5.65625 1.84375 -5.6875 1.875 -5.71875 C 1.90625 -5.75 1.914062 -5.796875 1.90625 -5.859375 Z M 3.453125 -5.5625 L 3.34375 -5.640625 L 3.203125 -5.609375 L 3.21875 -5.4375 L 3.390625 -5.40625 Z M 3.03125 -4.78125 C 2.976562 -4.851562 2.929688 -4.878906 2.890625 -4.859375 C 2.847656 -4.847656 2.785156 -4.828125 2.703125 -4.796875 C 2.609375 -4.773438 2.535156 -4.757812 2.484375 -4.75 C 2.429688 -4.738281 2.40625 -4.6875 2.40625 -4.59375 C 2.40625 -4.488281 2.421875 -4.414062 2.453125 -4.375 C 2.492188 -4.332031 2.566406 -4.296875 2.671875 -4.265625 C 2.742188 -4.242188 2.796875 -4.253906 2.828125 -4.296875 C 2.859375 -4.335938 2.898438 -4.390625 2.953125 -4.453125 C 3.003906 -4.523438 3.039062 -4.578125 3.0625 -4.609375 C 3.09375 -4.648438 3.082031 -4.707031 3.03125 -4.78125 Z M 4.390625 -4.546875 C 4.335938 -4.628906 4.285156 -4.675781 4.234375 -4.6875 C 4.179688 -4.707031 4.113281 -4.710938 4.03125 -4.703125 C 3.9375 -4.679688 3.867188 -4.65625 3.828125 -4.625 C 3.796875 -4.59375 3.769531 -4.53125 3.75 -4.4375 C 3.738281 -4.34375 3.742188 -4.273438 3.765625 -4.234375 C 3.796875 -4.203125 3.851562 -4.160156 3.9375 -4.109375 C 4.0625 -4.046875 4.179688 -4.0625 4.296875 -4.15625 C 4.367188 -4.226562 4.410156 -4.289062 4.421875 -4.34375 C 4.441406 -4.394531 4.429688 -4.460938 4.390625 -4.546875 Z M 1.40625 -4.328125 L 1.25 -4.453125 L 1.125 -4.265625 L 1.25 -4.125 L 1.40625 -4.1875 Z M 2.65625 -3.734375 C 2.601562 -3.847656 2.535156 -3.898438 2.453125 -3.890625 C 2.328125 -3.878906 2.253906 -3.820312 2.234375 -3.71875 C 2.222656 -3.625 2.269531 -3.550781 2.375 -3.5 C 2.46875 -3.4375 2.550781 -3.4375 2.625 -3.5 C 2.6875 -3.550781 2.695312 -3.628906 2.65625 -3.734375 Z M 1.53125 -3.453125 C 1.46875 -3.503906 1.421875 -3.539062 1.390625 -3.5625 C 1.359375 -3.59375 1.304688 -3.585938 1.234375 -3.546875 C 1.179688 -3.492188 1.160156 -3.445312 1.171875 -3.40625 C 1.179688 -3.375 1.203125 -3.316406 1.234375 -3.234375 C 1.253906 -3.160156 1.273438 -3.109375 1.296875 -3.078125 C 1.316406 -3.046875 1.359375 -3.03125 1.421875 -3.03125 C 1.523438 -3.03125 1.601562 -3.035156 1.65625 -3.046875 C 1.707031 -3.054688 1.742188 -3.109375 1.765625 -3.203125 C 1.796875 -3.273438 1.785156 -3.320312 1.734375 -3.34375 C 1.679688 -3.375 1.613281 -3.410156 1.53125 -3.453125 Z M 4.078125 -3.234375 C 4.046875 -3.359375 4 -3.441406 3.9375 -3.484375 C 3.882812 -3.535156 3.785156 -3.566406 3.640625 -3.578125 C 3.515625 -3.585938 3.425781 -3.566406 3.375 -3.515625 C 3.332031 -3.460938 3.289062 -3.378906 3.25 -3.265625 C 3.195312 -3.128906 3.164062 -3.023438 3.15625 -2.953125 C 3.144531 -2.878906 3.191406 -2.800781 3.296875 -2.71875 C 3.410156 -2.613281 3.507812 -2.5625 3.59375 -2.5625 C 3.675781 -2.5625 3.78125 -2.601562 3.90625 -2.6875 C 4.03125 -2.757812 4.097656 -2.832031 4.109375 -2.90625 C 4.117188 -2.988281 4.109375 -3.097656 4.078125 -3.234375 Z M 2.265625 -2.71875 L 2.078125 -2.734375 L 2.078125 -2.5625 L 2.1875 -2.421875 L 2.28125 -2.5625 Z M 1.34375 -2.65625 L 1.234375 -2.515625 L 1.234375 -2.375 L 1.390625 -2.328125 L 1.5 -2.5 Z M 3.734375 -2.046875 L 3.609375 -2.21875 L 3.453125 -2.0625 L 3.515625 -1.875 L 3.703125 -1.890625 Z M 2.796875 -1.890625 C 2.734375 -2.003906 2.671875 -2.082031 2.609375 -2.125 C 2.554688 -2.175781 2.460938 -2.1875 2.328125 -2.15625 C 2.203125 -2.125 2.125 -2.070312 2.09375 -2 C 2.070312 -1.9375 2.054688 -1.835938 2.046875 -1.703125 C 2.035156 -1.585938 2.050781 -1.503906 2.09375 -1.453125 C 2.132812 -1.410156 2.207031 -1.375 2.3125 -1.34375 C 2.425781 -1.28125 2.515625 -1.238281 2.578125 -1.21875 C 2.648438 -1.195312 2.734375 -1.238281 2.828125 -1.34375 C 2.910156 -1.445312 2.945312 -1.535156 2.9375 -1.609375 C 2.925781 -1.679688 2.878906 -1.773438 2.796875 -1.890625 Z M 4.375 -2.078125 L 4.265625 -2.15625 L 4.109375 -2.0625 L 4.21875 -1.9375 L 4.375 -1.90625 Z M 3.625 -1.5625 C 3.550781 -1.570312 3.5 -1.550781 3.46875 -1.5 C 3.4375 -1.457031 3.40625 -1.40625 3.375 -1.34375 C 3.332031 -1.28125 3.320312 -1.234375 3.34375 -1.203125 C 3.363281 -1.171875 3.394531 -1.128906 3.4375 -1.078125 C 3.5 -1.035156 3.539062 -0.992188 3.5625 -0.953125 C 3.59375 -0.921875 3.640625 -0.925781 3.703125 -0.96875 C 3.828125 -1.019531 3.878906 -1.113281 3.859375 -1.25 C 3.847656 -1.34375 3.828125 -1.410156 3.796875 -1.453125 C 3.773438 -1.503906 3.71875 -1.539062 3.625 -1.5625 Z M 3.625 -1.5625 "/></g></g></g><g fill="#000000" fill-opacity="1"><g transform="translate(73.039218, 20.852453)"><g><path d="M 2.375 0 C 2.25 0 2.140625 -0.046875 2.046875 -0.140625 C 1.953125 -0.234375 1.90625 -0.34375 1.90625 -0.46875 L 1.90625 -5.9375 L 0.71875 -5.9375 C 0.59375 -5.9375 0.484375 -5.976562 0.390625 -6.0625 C 0.304688 -6.15625 0.265625 -6.269531 0.265625 -6.40625 L 0.265625 -8.484375 C 0.265625 -8.609375 0.304688 -8.71875 0.390625 -8.8125 C 0.484375 -8.90625 0.59375 -8.953125 0.71875 -8.953125 L 1.90625 -8.953125 L 1.90625 -9.234375 C 1.90625 -10.179688 2.101562 -10.90625 2.5 -11.40625 C 2.90625 -11.90625 3.445312 -12.25 4.125 -12.4375 C 4.800781 -12.632812 5.550781 -12.734375 6.375 -12.734375 L 7.984375 -12.734375 C 8.109375 -12.734375 8.21875 -12.6875 8.3125 -12.59375 C 8.40625 -12.5 8.453125 -12.390625 8.453125 -12.265625 L 8.453125 -10.1875 C 8.453125 -10.0625 8.40625 -9.953125 8.3125 -9.859375 C 8.21875 -9.765625 8.109375 -9.71875 7.984375 -9.71875 L 6.59375 -9.71875 C 6.09375 -9.71875 5.84375 -9.53125 5.84375 -9.15625 L 5.84375 -8.953125 L 7.8125 -8.953125 C 7.9375 -8.953125 8.046875 -8.90625 8.140625 -8.8125 C 8.234375 -8.71875 8.28125 -8.609375 8.28125 -8.484375 L 8.28125 -6.40625 C 8.28125 -6.269531 8.234375 -6.15625 8.140625 -6.0625 C 8.046875 -5.976562 7.9375 -5.9375 7.8125 -5.9375 L 5.84375 -5.9375 L 5.84375 -0.46875 C 5.84375 -0.34375 5.796875 -0.234375 5.703125 -0.140625 C 5.617188 -0.046875 5.515625 0 5.390625 0 Z M 4.96875 -12.203125 L 4.84375 -12.203125 L 4.78125 -12.078125 L 4.90625 -12 L 5 -12.078125 Z M 7.046875 -11.78125 C 7.015625 -11.851562 6.972656 -11.890625 6.921875 -11.890625 C 6.878906 -11.890625 6.820312 -11.882812 6.75 -11.875 C 6.632812 -11.832031 6.566406 -11.753906 6.546875 -11.640625 C 6.535156 -11.578125 6.539062 -11.523438 6.5625 -11.484375 C 6.582031 -11.441406 6.625 -11.40625 6.6875 -11.375 C 6.800781 -11.320312 6.90625 -11.347656 7 -11.453125 C 7.0625 -11.515625 7.097656 -11.566406 7.109375 -11.609375 C 7.117188 -11.660156 7.097656 -11.71875 7.046875 -11.78125 Z M 4.984375 -10.296875 C 4.929688 -10.515625 4.898438 -10.703125 4.890625 -10.859375 C 4.878906 -11.023438 4.835938 -11.160156 4.765625 -11.265625 C 4.703125 -11.367188 4.566406 -11.425781 4.359375 -11.4375 C 3.972656 -11.457031 3.691406 -11.414062 3.515625 -11.3125 C 3.347656 -11.21875 3.195312 -10.984375 3.0625 -10.609375 C 2.914062 -10.253906 2.863281 -9.976562 2.90625 -9.78125 C 2.945312 -9.59375 3.117188 -9.375 3.421875 -9.125 C 3.710938 -8.863281 3.957031 -8.734375 4.15625 -8.734375 C 4.351562 -8.734375 4.617188 -8.832031 4.953125 -9.03125 C 5.128906 -9.144531 5.222656 -9.257812 5.234375 -9.375 C 5.253906 -9.5 5.226562 -9.632812 5.15625 -9.78125 C 5.09375 -9.925781 5.035156 -10.097656 4.984375 -10.296875 Z M 7.9375 -10.5 L 7.71875 -10.5625 L 7.5625 -10.4375 L 7.6875 -10.28125 L 7.84375 -10.328125 Z M 6.4375 -10.296875 C 6.414062 -10.390625 6.351562 -10.441406 6.25 -10.453125 C 6.132812 -10.472656 6.054688 -10.441406 6.015625 -10.359375 C 5.992188 -10.304688 5.988281 -10.265625 6 -10.234375 C 6.019531 -10.210938 6.054688 -10.1875 6.109375 -10.15625 C 6.171875 -10.082031 6.238281 -10.0625 6.3125 -10.09375 C 6.40625 -10.15625 6.445312 -10.222656 6.4375 -10.296875 Z M 2.9375 -9.125 C 2.925781 -9.21875 2.898438 -9.28125 2.859375 -9.3125 C 2.816406 -9.351562 2.75 -9.382812 2.65625 -9.40625 C 2.570312 -9.414062 2.515625 -9.398438 2.484375 -9.359375 C 2.460938 -9.316406 2.4375 -9.257812 2.40625 -9.1875 C 2.363281 -9.101562 2.375 -9.03125 2.4375 -8.96875 C 2.488281 -8.90625 2.523438 -8.863281 2.546875 -8.84375 C 2.578125 -8.832031 2.625 -8.835938 2.6875 -8.859375 C 2.757812 -8.890625 2.820312 -8.914062 2.875 -8.9375 C 2.925781 -8.96875 2.945312 -9.03125 2.9375 -9.125 Z M 2.375 -8.296875 C 2.15625 -8.460938 1.96875 -8.535156 1.8125 -8.515625 C 1.664062 -8.492188 1.476562 -8.40625 1.25 -8.25 C 1.070312 -8.125 0.992188 -8 1.015625 -7.875 C 1.046875 -7.75 1.09375 -7.578125 1.15625 -7.359375 C 1.21875 -7.109375 1.257812 -6.898438 1.28125 -6.734375 C 1.300781 -6.578125 1.4375 -6.492188 1.6875 -6.484375 C 1.9375 -6.472656 2.078125 -6.546875 2.109375 -6.703125 C 2.140625 -6.867188 2.195312 -7.070312 2.28125 -7.3125 C 2.363281 -7.539062 2.445312 -7.722656 2.53125 -7.859375 C 2.613281 -7.992188 2.5625 -8.140625 2.375 -8.296875 Z M 6.484375 -8.03125 C 6.441406 -8.082031 6.398438 -8.097656 6.359375 -8.078125 C 6.316406 -8.054688 6.265625 -8.03125 6.203125 -8 C 6.140625 -7.976562 6.082031 -7.960938 6.03125 -7.953125 C 5.988281 -7.941406 5.972656 -7.894531 5.984375 -7.8125 C 5.992188 -7.6875 6.078125 -7.601562 6.234375 -7.5625 C 6.296875 -7.550781 6.332031 -7.5625 6.34375 -7.59375 C 6.363281 -7.632812 6.398438 -7.691406 6.453125 -7.765625 C 6.484375 -7.816406 6.503906 -7.859375 6.515625 -7.890625 C 6.535156 -7.929688 6.523438 -7.976562 6.484375 -8.03125 Z M 7.453125 -7.453125 C 7.398438 -7.503906 7.359375 -7.53125 7.328125 -7.53125 C 7.296875 -7.53125 7.242188 -7.519531 7.171875 -7.5 C 7.109375 -7.476562 7.054688 -7.453125 7.015625 -7.421875 C 6.984375 -7.398438 6.96875 -7.359375 6.96875 -7.296875 C 6.96875 -7.210938 6.976562 -7.160156 7 -7.140625 C 7.03125 -7.117188 7.085938 -7.097656 7.171875 -7.078125 C 7.253906 -7.035156 7.335938 -7.066406 7.421875 -7.171875 C 7.453125 -7.234375 7.472656 -7.28125 7.484375 -7.3125 C 7.503906 -7.34375 7.492188 -7.390625 7.453125 -7.453125 Z M 5.296875 -7.421875 C 5.160156 -7.453125 5.054688 -7.445312 4.984375 -7.40625 C 4.921875 -7.363281 4.847656 -7.28125 4.765625 -7.15625 C 4.648438 -7.007812 4.550781 -6.890625 4.46875 -6.796875 C 4.394531 -6.703125 4.414062 -6.582031 4.53125 -6.4375 C 4.664062 -6.25 4.789062 -6.140625 4.90625 -6.109375 C 5.019531 -6.078125 5.1875 -6.09375 5.40625 -6.15625 C 5.613281 -6.238281 5.75 -6.328125 5.8125 -6.421875 C 5.882812 -6.523438 5.921875 -6.691406 5.921875 -6.921875 C 5.921875 -7.109375 5.863281 -7.222656 5.75 -7.265625 C 5.644531 -7.304688 5.492188 -7.359375 5.296875 -7.421875 Z M 3.578125 -6.59375 C 3.441406 -6.695312 3.328125 -6.765625 3.234375 -6.796875 C 3.148438 -6.835938 3.039062 -6.804688 2.90625 -6.703125 C 2.78125 -6.585938 2.734375 -6.488281 2.765625 -6.40625 C 2.804688 -6.320312 2.859375 -6.195312 2.921875 -6.03125 C 2.953125 -5.9375 3 -5.878906 3.0625 -5.859375 C 3.132812 -5.847656 3.226562 -5.84375 3.34375 -5.84375 C 3.457031 -5.851562 3.539062 -5.867188 3.59375 -5.890625 C 3.644531 -5.921875 3.679688 -5.988281 3.703125 -6.09375 C 3.734375 -6.21875 3.75 -6.3125 3.75 -6.375 C 3.75 -6.445312 3.691406 -6.519531 3.578125 -6.59375 Z M 4.015625 -4.546875 C 3.921875 -4.703125 3.832031 -4.816406 3.75 -4.890625 C 3.675781 -4.972656 3.550781 -4.992188 3.375 -4.953125 C 3.1875 -4.910156 3.097656 -4.832031 3.109375 -4.71875 C 3.117188 -4.613281 3.117188 -4.46875 3.109375 -4.28125 C 3.097656 -4.101562 3.070312 -3.957031 3.03125 -3.84375 C 2.988281 -3.726562 3.054688 -3.628906 3.234375 -3.546875 C 3.410156 -3.472656 3.53125 -3.488281 3.59375 -3.59375 C 3.65625 -3.695312 3.75 -3.816406 3.875 -3.953125 C 3.96875 -4.066406 4.03125 -4.160156 4.0625 -4.234375 C 4.101562 -4.316406 4.085938 -4.421875 4.015625 -4.546875 Z M 4.8125 -4.03125 L 4.640625 -4.046875 L 4.546875 -3.875 L 4.703125 -3.765625 L 4.921875 -3.8125 Z M 4.703125 -3.421875 C 4.597656 -3.484375 4.515625 -3.5 4.453125 -3.46875 C 4.398438 -3.445312 4.332031 -3.40625 4.25 -3.34375 C 4.175781 -3.269531 4.144531 -3.207031 4.15625 -3.15625 C 4.175781 -3.101562 4.203125 -3.03125 4.234375 -2.9375 C 4.273438 -2.84375 4.304688 -2.765625 4.328125 -2.703125 C 4.359375 -2.648438 4.429688 -2.632812 4.546875 -2.65625 C 4.628906 -2.664062 4.671875 -2.703125 4.671875 -2.765625 C 4.671875 -2.835938 4.6875 -2.921875 4.71875 -3.015625 C 4.738281 -3.117188 4.757812 -3.195312 4.78125 -3.25 C 4.8125 -3.3125 4.785156 -3.367188 4.703125 -3.421875 Z M 3.953125 -2.703125 L 3.75 -2.6875 L 3.734375 -2.5 L 3.875 -2.359375 L 4.015625 -2.515625 Z M 2.796875 -2.3125 L 2.609375 -2.390625 L 2.515625 -2.171875 L 2.671875 -2.046875 L 2.828125 -2.140625 Z M 4.03125 -1.71875 C 3.9375 -1.726562 3.867188 -1.71875 3.828125 -1.6875 C 3.796875 -1.664062 3.765625 -1.613281 3.734375 -1.53125 C 3.671875 -1.4375 3.625 -1.359375 3.59375 -1.296875 C 3.5625 -1.242188 3.585938 -1.175781 3.671875 -1.09375 C 3.753906 -1 3.832031 -0.941406 3.90625 -0.921875 C 3.976562 -0.910156 4.070312 -0.9375 4.1875 -1 C 4.28125 -1.050781 4.316406 -1.113281 4.296875 -1.1875 C 4.285156 -1.257812 4.273438 -1.351562 4.265625 -1.46875 C 4.242188 -1.613281 4.164062 -1.695312 4.03125 -1.71875 Z M 4.03125 -1.71875 "/></g></g></g><g fill="#5e17eb" fill-opacity="1"><g transform="translate(80.458558, 20.852453)"><g><path d="M 0.375 0 C 0.269531 0 0.179688 -0.0351562 0.109375 -0.109375 C 0.0351562 -0.179688 0 -0.269531 0 -0.375 C 0 -0.425781 0.00390625 -0.46875 0.015625 -0.5 L 3.859375 -11.46875 C 3.890625 -11.59375 3.96875 -11.71875 4.09375 -11.84375 C 4.21875 -11.976562 4.394531 -12.046875 4.625 -12.046875 L 8.359375 -12.046875 C 8.585938 -12.046875 8.765625 -11.976562 8.890625 -11.84375 C 9.015625 -11.71875 9.097656 -11.59375 9.140625 -11.46875 L 12.96875 -0.5 C 12.976562 -0.46875 12.984375 -0.425781 12.984375 -0.375 C 12.984375 -0.269531 12.945312 -0.179688 12.875 -0.109375 C 12.800781 -0.0351562 12.710938 0 12.609375 0 L 9.421875 0 C 9.203125 0 9.046875 -0.046875 8.953125 -0.140625 C 8.859375 -0.242188 8.789062 -0.34375 8.75 -0.4375 L 8.34375 -1.5625 L 4.640625 -1.5625 L 4.234375 -0.4375 C 4.203125 -0.34375 4.140625 -0.242188 4.046875 -0.140625 C 3.953125 -0.046875 3.789062 0 3.5625 0 Z M 5.59375 -10.9375 C 5.519531 -10.945312 5.460938 -10.945312 5.421875 -10.9375 C 5.390625 -10.9375 5.351562 -10.910156 5.3125 -10.859375 C 5.269531 -10.734375 5.296875 -10.625 5.390625 -10.53125 C 5.453125 -10.46875 5.503906 -10.425781 5.546875 -10.40625 C 5.597656 -10.382812 5.664062 -10.394531 5.75 -10.4375 C 5.820312 -10.476562 5.859375 -10.523438 5.859375 -10.578125 C 5.859375 -10.628906 5.851562 -10.695312 5.84375 -10.78125 C 5.832031 -10.851562 5.804688 -10.894531 5.765625 -10.90625 C 5.734375 -10.914062 5.675781 -10.925781 5.59375 -10.9375 Z M 7.421875 -10.484375 C 7.359375 -10.609375 7.289062 -10.679688 7.21875 -10.703125 C 7.15625 -10.722656 7.0625 -10.726562 6.9375 -10.71875 C 6.78125 -10.707031 6.660156 -10.691406 6.578125 -10.671875 C 6.492188 -10.660156 6.4375 -10.578125 6.40625 -10.421875 C 6.351562 -10.253906 6.34375 -10.125 6.375 -10.03125 C 6.414062 -9.945312 6.507812 -9.859375 6.65625 -9.765625 C 6.800781 -9.679688 6.921875 -9.640625 7.015625 -9.640625 C 7.117188 -9.648438 7.238281 -9.710938 7.375 -9.828125 C 7.488281 -9.929688 7.535156 -10.023438 7.515625 -10.109375 C 7.503906 -10.203125 7.472656 -10.328125 7.421875 -10.484375 Z M 4.375 -10.359375 C 4.300781 -10.410156 4.238281 -10.425781 4.1875 -10.40625 C 4.132812 -10.394531 4.078125 -10.359375 4.015625 -10.296875 C 3.910156 -10.234375 3.878906 -10.140625 3.921875 -10.015625 C 3.941406 -9.921875 3.960938 -9.847656 3.984375 -9.796875 C 4.015625 -9.753906 4.070312 -9.734375 4.15625 -9.734375 C 4.257812 -9.734375 4.332031 -9.75 4.375 -9.78125 C 4.425781 -9.8125 4.46875 -9.867188 4.5 -9.953125 C 4.539062 -10.054688 4.546875 -10.132812 4.515625 -10.1875 C 4.492188 -10.238281 4.445312 -10.296875 4.375 -10.359375 Z M 6.078125 -9.515625 C 6.015625 -9.515625 5.976562 -9.492188 5.96875 -9.453125 C 5.96875 -9.421875 5.957031 -9.378906 5.9375 -9.328125 C 5.914062 -9.273438 5.894531 -9.234375 5.875 -9.203125 C 5.863281 -9.179688 5.878906 -9.15625 5.921875 -9.125 C 5.984375 -9.050781 6.0625 -9.039062 6.15625 -9.09375 C 6.25 -9.144531 6.285156 -9.21875 6.265625 -9.3125 C 6.222656 -9.4375 6.160156 -9.503906 6.078125 -9.515625 Z M 8.828125 -8.8125 C 8.796875 -8.882812 8.757812 -8.929688 8.71875 -8.953125 C 8.675781 -8.972656 8.609375 -8.976562 8.515625 -8.96875 C 8.421875 -8.957031 8.34375 -8.941406 8.28125 -8.921875 C 8.226562 -8.910156 8.191406 -8.863281 8.171875 -8.78125 C 8.160156 -8.675781 8.175781 -8.601562 8.21875 -8.5625 C 8.269531 -8.53125 8.332031 -8.492188 8.40625 -8.453125 C 8.488281 -8.398438 8.554688 -8.363281 8.609375 -8.34375 C 8.660156 -8.332031 8.722656 -8.351562 8.796875 -8.40625 C 8.859375 -8.476562 8.890625 -8.539062 8.890625 -8.59375 C 8.890625 -8.644531 8.867188 -8.71875 8.828125 -8.8125 Z M 3.9375 -8.625 C 3.851562 -8.6875 3.78125 -8.71875 3.71875 -8.71875 C 3.664062 -8.71875 3.597656 -8.691406 3.515625 -8.640625 C 3.410156 -8.578125 3.332031 -8.519531 3.28125 -8.46875 C 3.238281 -8.414062 3.234375 -8.332031 3.265625 -8.21875 C 3.285156 -8.09375 3.320312 -8.003906 3.375 -7.953125 C 3.425781 -7.910156 3.523438 -7.882812 3.671875 -7.875 C 3.785156 -7.863281 3.863281 -7.882812 3.90625 -7.9375 C 3.945312 -7.988281 3.992188 -8.066406 4.046875 -8.171875 C 4.085938 -8.273438 4.101562 -8.351562 4.09375 -8.40625 C 4.082031 -8.46875 4.03125 -8.539062 3.9375 -8.625 Z M 5.515625 -4.921875 L 7.46875 -4.921875 L 6.484375 -8.125 Z M 9.015625 -7.453125 C 8.921875 -7.484375 8.84375 -7.5 8.78125 -7.5 C 8.726562 -7.5 8.675781 -7.457031 8.625 -7.375 C 8.5625 -7.300781 8.535156 -7.238281 8.546875 -7.1875 C 8.554688 -7.132812 8.59375 -7.066406 8.65625 -6.984375 C 8.71875 -6.878906 8.769531 -6.800781 8.8125 -6.75 C 8.851562 -6.695312 8.929688 -6.6875 9.046875 -6.71875 C 9.160156 -6.757812 9.222656 -6.8125 9.234375 -6.875 C 9.253906 -6.9375 9.265625 -7.03125 9.265625 -7.15625 C 9.265625 -7.25 9.242188 -7.3125 9.203125 -7.34375 C 9.171875 -7.375 9.109375 -7.410156 9.015625 -7.453125 Z M 4.609375 -6.640625 C 4.535156 -6.753906 4.460938 -6.820312 4.390625 -6.84375 C 4.328125 -6.863281 4.234375 -6.859375 4.109375 -6.828125 C 3.984375 -6.804688 3.90625 -6.765625 3.875 -6.703125 C 3.851562 -6.648438 3.832031 -6.5625 3.8125 -6.4375 C 3.800781 -6.332031 3.816406 -6.257812 3.859375 -6.21875 C 3.910156 -6.1875 3.984375 -6.15625 4.078125 -6.125 C 4.203125 -6.0625 4.296875 -6 4.359375 -5.9375 C 4.429688 -5.882812 4.519531 -5.910156 4.625 -6.015625 C 4.726562 -6.128906 4.769531 -6.226562 4.75 -6.3125 C 4.738281 -6.394531 4.691406 -6.503906 4.609375 -6.640625 Z M 8.703125 -6.1875 C 8.617188 -6.226562 8.5625 -6.222656 8.53125 -6.171875 C 8.5 -6.128906 8.453125 -6.078125 8.390625 -6.015625 C 8.335938 -5.960938 8.300781 -5.921875 8.28125 -5.890625 C 8.257812 -5.859375 8.269531 -5.8125 8.3125 -5.75 C 8.363281 -5.632812 8.445312 -5.582031 8.5625 -5.59375 C 8.644531 -5.601562 8.691406 -5.625 8.703125 -5.65625 C 8.722656 -5.695312 8.738281 -5.753906 8.75 -5.828125 C 8.769531 -5.921875 8.785156 -5.992188 8.796875 -6.046875 C 8.816406 -6.097656 8.785156 -6.144531 8.703125 -6.1875 Z M 9.890625 -5.859375 L 9.71875 -5.796875 L 9.640625 -5.65625 L 9.78125 -5.5625 L 9.90625 -5.671875 Z M 9.765625 -4.890625 C 9.734375 -4.972656 9.707031 -5.046875 9.6875 -5.109375 C 9.675781 -5.171875 9.625 -5.207031 9.53125 -5.21875 C 9.425781 -5.226562 9.363281 -5.203125 9.34375 -5.140625 C 9.320312 -5.085938 9.289062 -5.015625 9.25 -4.921875 C 9.207031 -4.804688 9.234375 -4.707031 9.328125 -4.625 C 9.421875 -4.539062 9.488281 -4.46875 9.53125 -4.40625 C 9.570312 -4.34375 9.644531 -4.34375 9.75 -4.40625 C 9.851562 -4.46875 9.890625 -4.535156 9.859375 -4.609375 C 9.828125 -4.679688 9.796875 -4.773438 9.765625 -4.890625 Z M 8.671875 -5.203125 L 8.515625 -5.078125 L 8.53125 -4.921875 L 8.703125 -4.875 L 8.75 -5.015625 Z M 10.5625 -4.703125 C 10.46875 -4.765625 10.394531 -4.769531 10.34375 -4.71875 C 10.28125 -4.675781 10.234375 -4.640625 10.203125 -4.609375 C 10.179688 -4.578125 10.179688 -4.53125 10.203125 -4.46875 C 10.222656 -4.40625 10.253906 -4.375 10.296875 -4.375 C 10.335938 -4.375 10.390625 -4.375 10.453125 -4.375 C 10.535156 -4.375 10.597656 -4.375 10.640625 -4.375 C 10.691406 -4.375 10.722656 -4.40625 10.734375 -4.46875 C 10.753906 -4.539062 10.742188 -4.585938 10.703125 -4.609375 C 10.671875 -4.628906 10.625 -4.660156 10.5625 -4.703125 Z M 4.890625 -4.078125 C 4.847656 -4.179688 4.8125 -4.25 4.78125 -4.28125 C 4.75 -4.3125 4.679688 -4.328125 4.578125 -4.328125 C 4.441406 -4.316406 4.332031 -4.304688 4.25 -4.296875 C 4.175781 -4.296875 4.125 -4.234375 4.09375 -4.109375 C 4.050781 -3.960938 4.039062 -3.847656 4.0625 -3.765625 C 4.082031 -3.679688 4.160156 -3.597656 4.296875 -3.515625 C 4.410156 -3.441406 4.492188 -3.4375 4.546875 -3.5 C 4.609375 -3.5625 4.691406 -3.632812 4.796875 -3.71875 C 4.867188 -3.769531 4.910156 -3.820312 4.921875 -3.875 C 4.929688 -3.925781 4.921875 -3.992188 4.890625 -4.078125 Z M 7.4375 -4.109375 C 7.332031 -4.171875 7.238281 -4.164062 7.15625 -4.09375 C 7.082031 -4.019531 7.070312 -3.9375 7.125 -3.84375 C 7.144531 -3.789062 7.171875 -3.765625 7.203125 -3.765625 C 7.234375 -3.765625 7.273438 -3.765625 7.328125 -3.765625 C 7.429688 -3.773438 7.488281 -3.816406 7.5 -3.890625 C 7.519531 -4.003906 7.5 -4.078125 7.4375 -4.109375 Z M 8.625 -3.953125 C 8.5625 -3.992188 8.515625 -4.023438 8.484375 -4.046875 C 8.460938 -4.078125 8.425781 -4.078125 8.375 -4.046875 C 8.320312 -3.992188 8.300781 -3.953125 8.3125 -3.921875 C 8.320312 -3.890625 8.335938 -3.835938 8.359375 -3.765625 C 8.390625 -3.660156 8.445312 -3.609375 8.53125 -3.609375 C 8.59375 -3.609375 8.628906 -3.625 8.640625 -3.65625 C 8.660156 -3.6875 8.679688 -3.726562 8.703125 -3.78125 C 8.710938 -3.84375 8.6875 -3.898438 8.625 -3.953125 Z M 6.078125 -3.703125 L 5.984375 -3.859375 L 5.78125 -3.78125 L 5.8125 -3.546875 L 6.03125 -3.46875 Z M 3.390625 -3.5 C 3.304688 -3.570312 3.242188 -3.632812 3.203125 -3.6875 C 3.160156 -3.738281 3.09375 -3.742188 3 -3.703125 C 2.894531 -3.640625 2.828125 -3.578125 2.796875 -3.515625 C 2.773438 -3.460938 2.769531 -3.375 2.78125 -3.25 C 2.8125 -3.125 2.835938 -3.03125 2.859375 -2.96875 C 2.890625 -2.914062 2.96875 -2.875 3.09375 -2.84375 C 3.226562 -2.8125 3.335938 -2.804688 3.421875 -2.828125 C 3.503906 -2.847656 3.578125 -2.921875 3.640625 -3.046875 C 3.710938 -3.160156 3.707031 -3.238281 3.625 -3.28125 C 3.550781 -3.332031 3.472656 -3.40625 3.390625 -3.5 Z M 9.765625 -3.25 C 9.734375 -3.332031 9.707031 -3.394531 9.6875 -3.4375 C 9.664062 -3.476562 9.613281 -3.5 9.53125 -3.5 C 9.4375 -3.476562 9.378906 -3.445312 9.359375 -3.40625 C 9.335938 -3.375 9.316406 -3.316406 9.296875 -3.234375 C 9.273438 -3.160156 9.273438 -3.109375 9.296875 -3.078125 C 9.328125 -3.046875 9.367188 -3.007812 9.421875 -2.96875 C 9.492188 -2.925781 9.550781 -2.894531 9.59375 -2.875 C 9.632812 -2.863281 9.6875 -2.878906 9.75 -2.921875 C 9.8125 -2.984375 9.835938 -3.035156 9.828125 -3.078125 C 9.828125 -3.117188 9.804688 -3.175781 9.765625 -3.25 Z M 7.21875 -3.1875 L 7.140625 -3.34375 L 7.015625 -3.21875 L 7.015625 -3.09375 L 7.171875 -3.03125 Z M 4.390625 -2.875 C 4.304688 -2.9375 4.238281 -2.957031 4.1875 -2.9375 C 4.132812 -2.925781 4.0625 -2.894531 3.96875 -2.84375 C 3.90625 -2.789062 3.867188 -2.738281 3.859375 -2.6875 C 3.859375 -2.644531 3.867188 -2.585938 3.890625 -2.515625 C 3.910156 -2.398438 3.988281 -2.335938 4.125 -2.328125 C 4.21875 -2.328125 4.285156 -2.328125 4.328125 -2.328125 C 4.378906 -2.335938 4.421875 -2.378906 4.453125 -2.453125 C 4.484375 -2.554688 4.5 -2.632812 4.5 -2.6875 C 4.5 -2.738281 4.460938 -2.800781 4.390625 -2.875 Z M 10.765625 -2.265625 C 10.648438 -2.304688 10.5625 -2.316406 10.5 -2.296875 C 10.4375 -2.285156 10.378906 -2.234375 10.328125 -2.140625 C 10.242188 -2.003906 10.175781 -1.898438 10.125 -1.828125 C 10.082031 -1.753906 10.113281 -1.660156 10.21875 -1.546875 C 10.3125 -1.421875 10.398438 -1.367188 10.484375 -1.390625 C 10.566406 -1.410156 10.679688 -1.453125 10.828125 -1.515625 C 10.972656 -1.566406 11.082031 -1.609375 11.15625 -1.640625 C 11.238281 -1.679688 11.273438 -1.78125 11.265625 -1.9375 C 11.253906 -2.09375 11.203125 -2.175781 11.109375 -2.1875 C 11.015625 -2.207031 10.898438 -2.234375 10.765625 -2.265625 Z M 3.1875 -1.609375 C 3.113281 -1.773438 3.023438 -1.851562 2.921875 -1.84375 C 2.828125 -1.84375 2.695312 -1.835938 2.53125 -1.828125 C 2.34375 -1.816406 2.191406 -1.804688 2.078125 -1.796875 C 1.972656 -1.796875 1.898438 -1.703125 1.859375 -1.515625 C 1.816406 -1.328125 1.828125 -1.191406 1.890625 -1.109375 C 1.960938 -1.023438 2.078125 -0.929688 2.234375 -0.828125 C 2.429688 -0.710938 2.582031 -0.628906 2.6875 -0.578125 C 2.800781 -0.535156 2.9375 -0.585938 3.09375 -0.734375 C 3.269531 -0.878906 3.347656 -1.007812 3.328125 -1.125 C 3.304688 -1.25 3.257812 -1.410156 3.1875 -1.609375 Z M 3.1875 -1.609375 "/></g></g></g><g fill="#5e17eb" fill-opacity="1"><g transform="translate(93.438982, 20.852453)"><g><path d="M 1.40625 0 C 1.28125 0 1.171875 -0.046875 1.078125 -0.140625 C 0.992188 -0.234375 0.953125 -0.34375 0.953125 -0.46875 L 0.953125 -11.578125 C 0.953125 -11.703125 0.992188 -11.8125 1.078125 -11.90625 C 1.171875 -12 1.28125 -12.046875 1.40625 -12.046875 L 4.921875 -12.046875 C 5.046875 -12.046875 5.15625 -12 5.25 -11.90625 C 5.34375 -11.8125 5.390625 -11.703125 5.390625 -11.578125 L 5.390625 -0.46875 C 5.390625 -0.34375 5.34375 -0.234375 5.25 -0.140625 C 5.15625 -0.046875 5.046875 0 4.921875 0 Z M 3.1875 -11.578125 C 3.070312 -11.585938 2.988281 -11.570312 2.9375 -11.53125 C 2.882812 -11.5 2.832031 -11.4375 2.78125 -11.34375 C 2.738281 -11.238281 2.726562 -11.160156 2.75 -11.109375 C 2.78125 -11.066406 2.84375 -11.007812 2.9375 -10.9375 C 3.03125 -10.863281 3.101562 -10.800781 3.15625 -10.75 C 3.207031 -10.695312 3.285156 -10.703125 3.390625 -10.765625 C 3.503906 -10.835938 3.554688 -10.90625 3.546875 -10.96875 C 3.535156 -11.039062 3.507812 -11.132812 3.46875 -11.25 C 3.445312 -11.363281 3.421875 -11.441406 3.390625 -11.484375 C 3.359375 -11.535156 3.289062 -11.566406 3.1875 -11.578125 Z M 1.984375 -11.3125 L 1.828125 -11.296875 L 1.859375 -11.125 L 2.015625 -11.125 Z M 2.53125 -10.484375 L 2.34375 -10.53125 L 2.3125 -10.28125 L 2.515625 -10.171875 L 2.671875 -10.34375 Z M 3.609375 -10.234375 C 3.585938 -10.273438 3.570312 -10.3125 3.5625 -10.34375 C 3.550781 -10.375 3.515625 -10.390625 3.453125 -10.390625 C 3.347656 -10.378906 3.285156 -10.316406 3.265625 -10.203125 C 3.253906 -10.148438 3.265625 -10.113281 3.296875 -10.09375 C 3.328125 -10.082031 3.363281 -10.066406 3.40625 -10.046875 C 3.445312 -10.023438 3.484375 -10.003906 3.515625 -9.984375 C 3.546875 -9.960938 3.578125 -9.972656 3.609375 -10.015625 C 3.660156 -10.046875 3.675781 -10.078125 3.65625 -10.109375 C 3.644531 -10.140625 3.628906 -10.179688 3.609375 -10.234375 Z M 1.9375 -10.015625 L 1.859375 -10.109375 L 1.6875 -10.078125 L 1.765625 -9.9375 L 1.90625 -9.84375 Z M 4.828125 -9.671875 L 4.65625 -9.640625 L 4.71875 -9.4375 L 4.90625 -9.390625 L 4.96875 -9.5625 Z M 1.984375 -9.21875 L 1.875 -9.296875 L 1.71875 -9.234375 L 1.765625 -9.046875 L 1.984375 -9.046875 Z M 3.46875 -8.90625 C 3.394531 -8.976562 3.304688 -8.976562 3.203125 -8.90625 C 3.140625 -8.875 3.09375 -8.835938 3.0625 -8.796875 C 3.039062 -8.765625 3.035156 -8.71875 3.046875 -8.65625 C 3.085938 -8.519531 3.171875 -8.441406 3.296875 -8.421875 C 3.378906 -8.421875 3.429688 -8.4375 3.453125 -8.46875 C 3.484375 -8.5 3.515625 -8.554688 3.546875 -8.640625 C 3.585938 -8.742188 3.5625 -8.832031 3.46875 -8.90625 Z M 2.328125 -8.796875 L 2.1875 -8.90625 L 2.09375 -8.75 L 2.09375 -8.625 L 2.265625 -8.625 Z M 4.75 -8.25 L 4.546875 -8.1875 L 4.625 -8.015625 L 4.765625 -7.984375 L 4.890625 -8.109375 Z M 1.828125 -7.796875 L 1.609375 -7.9375 L 1.4375 -7.796875 L 1.53125 -7.609375 L 1.71875 -7.59375 Z M 4.234375 -7.609375 C 4.222656 -7.710938 4.191406 -7.773438 4.140625 -7.796875 C 4.085938 -7.816406 4.007812 -7.835938 3.90625 -7.859375 C 3.820312 -7.867188 3.765625 -7.859375 3.734375 -7.828125 C 3.710938 -7.796875 3.679688 -7.742188 3.640625 -7.671875 C 3.609375 -7.597656 3.585938 -7.539062 3.578125 -7.5 C 3.578125 -7.46875 3.597656 -7.421875 3.640625 -7.359375 C 3.710938 -7.296875 3.769531 -7.25 3.8125 -7.21875 C 3.851562 -7.195312 3.910156 -7.210938 3.984375 -7.265625 C 4.078125 -7.304688 4.144531 -7.347656 4.1875 -7.390625 C 4.226562 -7.429688 4.242188 -7.503906 4.234375 -7.609375 Z M 2.859375 -7.296875 C 2.679688 -7.335938 2.550781 -7.332031 2.46875 -7.28125 C 2.382812 -7.238281 2.289062 -7.144531 2.1875 -7 C 2.101562 -6.863281 2.082031 -6.753906 2.125 -6.671875 C 2.164062 -6.585938 2.238281 -6.488281 2.34375 -6.375 C 2.445312 -6.25 2.53125 -6.164062 2.59375 -6.125 C 2.664062 -6.082031 2.769531 -6.085938 2.90625 -6.140625 C 3.09375 -6.222656 3.234375 -6.289062 3.328125 -6.34375 C 3.421875 -6.40625 3.460938 -6.53125 3.453125 -6.71875 C 3.441406 -6.925781 3.382812 -7.0625 3.28125 -7.125 C 3.1875 -7.1875 3.046875 -7.242188 2.859375 -7.296875 Z M 4.40625 -6.875 L 4.28125 -6.859375 L 4.203125 -6.71875 L 4.375 -6.65625 L 4.53125 -6.765625 Z M 2.078125 -5.328125 C 1.972656 -5.335938 1.914062 -5.3125 1.90625 -5.25 C 1.894531 -5.1875 1.875 -5.109375 1.84375 -5.015625 C 1.8125 -4.929688 1.78125 -4.863281 1.75 -4.8125 C 1.71875 -4.757812 1.738281 -4.703125 1.8125 -4.640625 C 1.875 -4.585938 1.925781 -4.578125 1.96875 -4.609375 C 2.019531 -4.648438 2.085938 -4.695312 2.171875 -4.75 C 2.242188 -4.789062 2.304688 -4.820312 2.359375 -4.84375 C 2.421875 -4.875 2.441406 -4.941406 2.421875 -5.046875 C 2.398438 -5.148438 2.363281 -5.21875 2.3125 -5.25 C 2.269531 -5.289062 2.191406 -5.316406 2.078125 -5.328125 Z M 3.234375 -5.203125 L 3.0625 -5.15625 L 3.140625 -4.984375 L 3.34375 -4.9375 L 3.390625 -5.125 Z M 4.828125 -4.3125 L 4.71875 -4.40625 L 4.65625 -4.265625 L 4.734375 -4.109375 L 4.84375 -4.21875 Z M 3.296875 -4.125 C 3.222656 -4.207031 3.128906 -4.21875 3.015625 -4.15625 C 2.898438 -4.101562 2.851562 -4.015625 2.875 -3.890625 C 2.894531 -3.765625 2.96875 -3.691406 3.09375 -3.671875 C 3.1875 -3.648438 3.253906 -3.644531 3.296875 -3.65625 C 3.347656 -3.664062 3.394531 -3.707031 3.4375 -3.78125 C 3.476562 -3.863281 3.484375 -3.925781 3.453125 -3.96875 C 3.421875 -4.007812 3.367188 -4.0625 3.296875 -4.125 Z M 4.578125 -3.53125 C 4.429688 -3.632812 4.285156 -3.632812 4.140625 -3.53125 C 4.066406 -3.46875 4.023438 -3.410156 4.015625 -3.359375 C 4.015625 -3.304688 4.03125 -3.234375 4.0625 -3.140625 C 4.09375 -3.023438 4.117188 -2.9375 4.140625 -2.875 C 4.171875 -2.8125 4.242188 -2.78125 4.359375 -2.78125 C 4.484375 -2.78125 4.578125 -2.796875 4.640625 -2.828125 C 4.703125 -2.867188 4.753906 -2.953125 4.796875 -3.078125 C 4.828125 -3.191406 4.820312 -3.273438 4.78125 -3.328125 C 4.738281 -3.378906 4.671875 -3.445312 4.578125 -3.53125 Z M 2.203125 -3.5 C 2.109375 -3.53125 2.035156 -3.535156 1.984375 -3.515625 C 1.929688 -3.503906 1.878906 -3.457031 1.828125 -3.375 C 1.773438 -3.289062 1.757812 -3.226562 1.78125 -3.1875 C 1.8125 -3.144531 1.851562 -3.09375 1.90625 -3.03125 C 1.976562 -2.945312 2.03125 -2.878906 2.0625 -2.828125 C 2.09375 -2.773438 2.15625 -2.773438 2.25 -2.828125 C 2.363281 -2.859375 2.4375 -2.898438 2.46875 -2.953125 C 2.5 -3.003906 2.515625 -3.085938 2.515625 -3.203125 C 2.503906 -3.316406 2.472656 -3.382812 2.421875 -3.40625 C 2.378906 -3.4375 2.304688 -3.46875 2.203125 -3.5 Z M 3.375 -2.609375 L 3.25 -2.671875 L 3.171875 -2.53125 L 3.265625 -2.390625 L 3.4375 -2.484375 Z M 2.78125 -2.28125 L 2.65625 -2.390625 L 2.5 -2.28125 L 2.546875 -2.078125 L 2.71875 -2.140625 Z M 2.0625 -1.921875 C 2.0625 -2.023438 2.050781 -2.101562 2.03125 -2.15625 C 2.007812 -2.207031 1.945312 -2.25 1.84375 -2.28125 C 1.757812 -2.3125 1.707031 -2.300781 1.6875 -2.25 C 1.664062 -2.195312 1.625 -2.128906 1.5625 -2.046875 C 1.507812 -1.960938 1.507812 -1.882812 1.5625 -1.8125 C 1.625 -1.738281 1.664062 -1.679688 1.6875 -1.640625 C 1.707031 -1.609375 1.757812 -1.609375 1.84375 -1.640625 C 1.9375 -1.671875 1.992188 -1.703125 2.015625 -1.734375 C 2.046875 -1.773438 2.0625 -1.835938 2.0625 -1.921875 Z M 4.40625 -2.234375 C 4.332031 -2.242188 4.28125 -2.203125 4.25 -2.109375 C 4.21875 -2.035156 4.222656 -1.972656 4.265625 -1.921875 C 4.304688 -1.878906 4.367188 -1.878906 4.453125 -1.921875 C 4.503906 -1.953125 4.539062 -1.972656 4.5625 -1.984375 C 4.59375 -2.003906 4.601562 -2.035156 4.59375 -2.078125 C 4.570312 -2.171875 4.507812 -2.222656 4.40625 -2.234375 Z M 3.25 -1.671875 L 3.140625 -1.8125 L 2.96875 -1.703125 L 3.03125 -1.515625 L 3.203125 -1.53125 Z M 3.390625 -0.84375 C 3.378906 -0.925781 3.363281 -0.984375 3.34375 -1.015625 C 3.320312 -1.054688 3.273438 -1.09375 3.203125 -1.125 C 3.109375 -1.132812 3.035156 -1.128906 2.984375 -1.109375 C 2.941406 -1.097656 2.898438 -1.054688 2.859375 -0.984375 C 2.804688 -0.898438 2.800781 -0.84375 2.84375 -0.8125 C 2.894531 -0.789062 2.953125 -0.75 3.015625 -0.6875 C 3.046875 -0.644531 3.070312 -0.609375 3.09375 -0.578125 C 3.125 -0.554688 3.171875 -0.554688 3.234375 -0.578125 C 3.347656 -0.640625 3.398438 -0.726562 3.390625 -0.84375 Z M 4.84375 -0.953125 C 4.8125 -1.023438 4.765625 -1.054688 4.703125 -1.046875 C 4.648438 -1.035156 4.578125 -1.023438 4.484375 -1.015625 C 4.410156 -1.003906 4.351562 -0.992188 4.3125 -0.984375 C 4.269531 -0.972656 4.238281 -0.925781 4.21875 -0.84375 C 4.207031 -0.738281 4.203125 -0.65625 4.203125 -0.59375 C 4.203125 -0.539062 4.242188 -0.492188 4.328125 -0.453125 C 4.410156 -0.398438 4.46875 -0.398438 4.5 -0.453125 C 4.539062 -0.503906 4.59375 -0.566406 4.65625 -0.640625 C 4.726562 -0.703125 4.785156 -0.75 4.828125 -0.78125 C 4.878906 -0.8125 4.882812 -0.867188 4.84375 -0.953125 Z M 4.84375 -0.953125 "/></g></g></g></svg>